<?xml version="1.0" encoding="utf-8" standalone="no"?>
<!DOCTYPE svg PUBLIC "-//W3C//DTD SVG 1.1//EN"
  "http://www.w3.org/Graphics/SVG/1.1/DTD/svg11.dtd">
<!-- Created with matplotlib (https://matplotlib.org/) -->
<svg height="384.59375pt" version="1.1" viewBox="0 0 613.395313 384.59375" width="613.395313pt" xmlns="http://www.w3.org/2000/svg" xmlns:xlink="http://www.w3.org/1999/xlink">
 <metadata>
  <rdf:RDF xmlns:cc="http://creativecommons.org/ns#" xmlns:dc="http://purl.org/dc/elements/1.1/" xmlns:rdf="http://www.w3.org/1999/02/22-rdf-syntax-ns#">
   <cc:Work>
    <dc:type rdf:resource="http://purl.org/dc/dcmitype/StillImage"/>
    <dc:date>2021-01-19T19:14:30.589844</dc:date>
    <dc:format>image/svg+xml</dc:format>
    <dc:creator>
     <cc:Agent>
      <dc:title>Matplotlib v3.3.2, https://matplotlib.org/</dc:title>
     </cc:Agent>
    </dc:creator>
   </cc:Work>
  </rdf:RDF>
 </metadata>
 <defs>
  <style type="text/css">*{stroke-linecap:butt;stroke-linejoin:round;}</style>
 </defs>
 <g id="figure_1">
  <g id="patch_1">
   <path d="M 0 384.59375 
L 613.395313 384.59375 
L 613.395313 0 
L 0 0 
z
" style="fill:#ffffff;"/>
  </g>
  <g id="axes_1">
   <g id="patch_2">
    <path d="M 41.245313 348.103125 
L 599.245312 348.103125 
L 599.245312 21.943125 
L 41.245313 21.943125 
z
" style="fill:#eaeaf2;"/>
   </g>
   <g id="matplotlib.axis_1">
    <g id="xtick_1">
     <g id="line2d_1">
      <path clip-path="url(#pfa754bf859)" d="M 41.245313 348.103125 
L 41.245313 21.943125 
" style="fill:none;stroke:#ffffff;stroke-linecap:round;stroke-width:0.8;"/>
     </g>
     <g id="text_1">
      <!-- 0.0 -->
      <g style="fill:#262626;" transform="translate(34.295313 362.260938)scale(0.1 -0.1)">
       <defs>
        <path d="M 4.15625 35.296875 
Q 4.15625 48 6.765625 55.734375 
Q 9.375 63.484375 14.515625 67.671875 
Q 19.671875 71.875 27.484375 71.875 
Q 33.25 71.875 37.59375 69.546875 
Q 41.9375 67.234375 44.765625 62.859375 
Q 47.609375 58.5 49.21875 52.21875 
Q 50.828125 45.953125 50.828125 35.296875 
Q 50.828125 22.703125 48.234375 14.96875 
Q 45.65625 7.234375 40.5 3 
Q 35.359375 -1.21875 27.484375 -1.21875 
Q 17.140625 -1.21875 11.234375 6.203125 
Q 4.15625 15.140625 4.15625 35.296875 
z
M 13.1875 35.296875 
Q 13.1875 17.671875 17.3125 11.828125 
Q 21.4375 6 27.484375 6 
Q 33.546875 6 37.671875 11.859375 
Q 41.796875 17.71875 41.796875 35.296875 
Q 41.796875 52.984375 37.671875 58.78125 
Q 33.546875 64.59375 27.390625 64.59375 
Q 21.34375 64.59375 17.71875 59.46875 
Q 13.1875 52.9375 13.1875 35.296875 
z
" id="ArialMT-48"/>
        <path d="M 9.078125 0 
L 9.078125 10.015625 
L 19.09375 10.015625 
L 19.09375 0 
z
" id="ArialMT-46"/>
       </defs>
       <use xlink:href="#ArialMT-48"/>
       <use x="55.615234" xlink:href="#ArialMT-46"/>
       <use x="83.398438" xlink:href="#ArialMT-48"/>
      </g>
     </g>
    </g>
    <g id="xtick_2">
     <g id="line2d_2">
      <path clip-path="url(#pfa754bf859)" d="M 152.845313 348.103125 
L 152.845313 21.943125 
" style="fill:none;stroke:#ffffff;stroke-linecap:round;stroke-width:0.8;"/>
     </g>
     <g id="text_2">
      <!-- 0.2 -->
      <g style="fill:#262626;" transform="translate(145.895313 362.260938)scale(0.1 -0.1)">
       <defs>
        <path d="M 50.34375 8.453125 
L 50.34375 0 
L 3.03125 0 
Q 2.9375 3.171875 4.046875 6.109375 
Q 5.859375 10.9375 9.828125 15.625 
Q 13.8125 20.3125 21.34375 26.46875 
Q 33.015625 36.03125 37.109375 41.625 
Q 41.21875 47.21875 41.21875 52.203125 
Q 41.21875 57.421875 37.46875 61 
Q 33.734375 64.59375 27.734375 64.59375 
Q 21.390625 64.59375 17.578125 60.78125 
Q 13.765625 56.984375 13.71875 50.25 
L 4.6875 51.171875 
Q 5.609375 61.28125 11.65625 66.578125 
Q 17.71875 71.875 27.9375 71.875 
Q 38.234375 71.875 44.234375 66.15625 
Q 50.25 60.453125 50.25 52 
Q 50.25 47.703125 48.484375 43.546875 
Q 46.734375 39.40625 42.65625 34.8125 
Q 38.578125 30.21875 29.109375 22.21875 
Q 21.1875 15.578125 18.9375 13.203125 
Q 16.703125 10.84375 15.234375 8.453125 
z
" id="ArialMT-50"/>
       </defs>
       <use xlink:href="#ArialMT-48"/>
       <use x="55.615234" xlink:href="#ArialMT-46"/>
       <use x="83.398438" xlink:href="#ArialMT-50"/>
      </g>
     </g>
    </g>
    <g id="xtick_3">
     <g id="line2d_3">
      <path clip-path="url(#pfa754bf859)" d="M 264.445312 348.103125 
L 264.445312 21.943125 
" style="fill:none;stroke:#ffffff;stroke-linecap:round;stroke-width:0.8;"/>
     </g>
     <g id="text_3">
      <!-- 0.4 -->
      <g style="fill:#262626;" transform="translate(257.495313 362.260938)scale(0.1 -0.1)">
       <defs>
        <path d="M 32.328125 0 
L 32.328125 17.140625 
L 1.265625 17.140625 
L 1.265625 25.203125 
L 33.9375 71.578125 
L 41.109375 71.578125 
L 41.109375 25.203125 
L 50.78125 25.203125 
L 50.78125 17.140625 
L 41.109375 17.140625 
L 41.109375 0 
z
M 32.328125 25.203125 
L 32.328125 57.46875 
L 9.90625 25.203125 
z
" id="ArialMT-52"/>
       </defs>
       <use xlink:href="#ArialMT-48"/>
       <use x="55.615234" xlink:href="#ArialMT-46"/>
       <use x="83.398438" xlink:href="#ArialMT-52"/>
      </g>
     </g>
    </g>
    <g id="xtick_4">
     <g id="line2d_4">
      <path clip-path="url(#pfa754bf859)" d="M 376.045313 348.103125 
L 376.045313 21.943125 
" style="fill:none;stroke:#ffffff;stroke-linecap:round;stroke-width:0.8;"/>
     </g>
     <g id="text_4">
      <!-- 0.6 -->
      <g style="fill:#262626;" transform="translate(369.095313 362.260938)scale(0.1 -0.1)">
       <defs>
        <path d="M 49.75 54.046875 
L 41.015625 53.375 
Q 39.84375 58.546875 37.703125 60.890625 
Q 34.125 64.65625 28.90625 64.65625 
Q 24.703125 64.65625 21.53125 62.3125 
Q 17.390625 59.28125 14.984375 53.46875 
Q 12.59375 47.65625 12.5 36.921875 
Q 15.671875 41.75 20.265625 44.09375 
Q 24.859375 46.4375 29.890625 46.4375 
Q 38.671875 46.4375 44.84375 39.96875 
Q 51.03125 33.5 51.03125 23.25 
Q 51.03125 16.5 48.125 10.71875 
Q 45.21875 4.9375 40.140625 1.859375 
Q 35.0625 -1.21875 28.609375 -1.21875 
Q 17.625 -1.21875 10.6875 6.859375 
Q 3.765625 14.9375 3.765625 33.5 
Q 3.765625 54.25 11.421875 63.671875 
Q 18.109375 71.875 29.4375 71.875 
Q 37.890625 71.875 43.28125 67.140625 
Q 48.6875 62.40625 49.75 54.046875 
z
M 13.875 23.1875 
Q 13.875 18.65625 15.796875 14.5 
Q 17.71875 10.359375 21.1875 8.171875 
Q 24.65625 6 28.46875 6 
Q 34.03125 6 38.03125 10.484375 
Q 42.046875 14.984375 42.046875 22.703125 
Q 42.046875 30.125 38.078125 34.390625 
Q 34.125 38.671875 28.125 38.671875 
Q 22.171875 38.671875 18.015625 34.390625 
Q 13.875 30.125 13.875 23.1875 
z
" id="ArialMT-54"/>
       </defs>
       <use xlink:href="#ArialMT-48"/>
       <use x="55.615234" xlink:href="#ArialMT-46"/>
       <use x="83.398438" xlink:href="#ArialMT-54"/>
      </g>
     </g>
    </g>
    <g id="xtick_5">
     <g id="line2d_5">
      <path clip-path="url(#pfa754bf859)" d="M 487.645313 348.103125 
L 487.645313 21.943125 
" style="fill:none;stroke:#ffffff;stroke-linecap:round;stroke-width:0.8;"/>
     </g>
     <g id="text_5">
      <!-- 0.8 -->
      <g style="fill:#262626;" transform="translate(480.695313 362.260938)scale(0.1 -0.1)">
       <defs>
        <path d="M 17.671875 38.8125 
Q 12.203125 40.828125 9.5625 44.53125 
Q 6.9375 48.25 6.9375 53.421875 
Q 6.9375 61.234375 12.546875 66.546875 
Q 18.171875 71.875 27.484375 71.875 
Q 36.859375 71.875 42.578125 66.421875 
Q 48.296875 60.984375 48.296875 53.171875 
Q 48.296875 48.1875 45.671875 44.5 
Q 43.0625 40.828125 37.75 38.8125 
Q 44.34375 36.671875 47.78125 31.875 
Q 51.21875 27.09375 51.21875 20.453125 
Q 51.21875 11.28125 44.71875 5.03125 
Q 38.234375 -1.21875 27.640625 -1.21875 
Q 17.046875 -1.21875 10.546875 5.046875 
Q 4.046875 11.328125 4.046875 20.703125 
Q 4.046875 27.6875 7.59375 32.390625 
Q 11.140625 37.109375 17.671875 38.8125 
z
M 15.921875 53.71875 
Q 15.921875 48.640625 19.1875 45.40625 
Q 22.46875 42.1875 27.6875 42.1875 
Q 32.765625 42.1875 36.015625 45.375 
Q 39.265625 48.578125 39.265625 53.21875 
Q 39.265625 58.0625 35.90625 61.359375 
Q 32.5625 64.65625 27.59375 64.65625 
Q 22.5625 64.65625 19.234375 61.421875 
Q 15.921875 58.203125 15.921875 53.71875 
z
M 13.09375 20.65625 
Q 13.09375 16.890625 14.875 13.375 
Q 16.65625 9.859375 20.171875 7.921875 
Q 23.6875 6 27.734375 6 
Q 34.03125 6 38.125 10.046875 
Q 42.234375 14.109375 42.234375 20.359375 
Q 42.234375 26.703125 38.015625 30.859375 
Q 33.796875 35.015625 27.4375 35.015625 
Q 21.234375 35.015625 17.15625 30.90625 
Q 13.09375 26.8125 13.09375 20.65625 
z
" id="ArialMT-56"/>
       </defs>
       <use xlink:href="#ArialMT-48"/>
       <use x="55.615234" xlink:href="#ArialMT-46"/>
       <use x="83.398438" xlink:href="#ArialMT-56"/>
      </g>
     </g>
    </g>
    <g id="xtick_6">
     <g id="line2d_6">
      <path clip-path="url(#pfa754bf859)" d="M 599.245312 348.103125 
L 599.245312 21.943125 
" style="fill:none;stroke:#ffffff;stroke-linecap:round;stroke-width:0.8;"/>
     </g>
     <g id="text_6">
      <!-- 1.0 -->
      <g style="fill:#262626;" transform="translate(592.295312 362.260938)scale(0.1 -0.1)">
       <defs>
        <path d="M 37.25 0 
L 28.46875 0 
L 28.46875 56 
Q 25.296875 52.984375 20.140625 49.953125 
Q 14.984375 46.921875 10.890625 45.40625 
L 10.890625 53.90625 
Q 18.265625 57.375 23.78125 62.296875 
Q 29.296875 67.234375 31.59375 71.875 
L 37.25 71.875 
z
" id="ArialMT-49"/>
       </defs>
       <use xlink:href="#ArialMT-49"/>
       <use x="55.615234" xlink:href="#ArialMT-46"/>
       <use x="83.398438" xlink:href="#ArialMT-48"/>
      </g>
     </g>
    </g>
    <g id="text_7">
     <!-- False Positive Rate -->
     <g style="fill:#262626;" transform="translate(277.173437 375.40625)scale(0.1 -0.1)">
      <defs>
       <path d="M 8.203125 0 
L 8.203125 71.578125 
L 56.5 71.578125 
L 56.5 63.140625 
L 17.671875 63.140625 
L 17.671875 40.96875 
L 51.265625 40.96875 
L 51.265625 32.515625 
L 17.671875 32.515625 
L 17.671875 0 
z
" id="ArialMT-70"/>
       <path d="M 40.4375 6.390625 
Q 35.546875 2.25 31.03125 0.53125 
Q 26.515625 -1.171875 21.34375 -1.171875 
Q 12.796875 -1.171875 8.203125 3 
Q 3.609375 7.171875 3.609375 13.671875 
Q 3.609375 17.484375 5.34375 20.625 
Q 7.078125 23.78125 9.890625 25.6875 
Q 12.703125 27.59375 16.21875 28.5625 
Q 18.796875 29.25 24.03125 29.890625 
Q 34.671875 31.15625 39.703125 32.90625 
Q 39.75 34.71875 39.75 35.203125 
Q 39.75 40.578125 37.25 42.78125 
Q 33.890625 45.75 27.25 45.75 
Q 21.046875 45.75 18.09375 43.578125 
Q 15.140625 41.40625 13.71875 35.890625 
L 5.125 37.0625 
Q 6.296875 42.578125 8.984375 45.96875 
Q 11.671875 49.359375 16.75 51.1875 
Q 21.828125 53.03125 28.515625 53.03125 
Q 35.15625 53.03125 39.296875 51.46875 
Q 43.453125 49.90625 45.40625 47.53125 
Q 47.359375 45.171875 48.140625 41.546875 
Q 48.578125 39.3125 48.578125 33.453125 
L 48.578125 21.734375 
Q 48.578125 9.46875 49.140625 6.21875 
Q 49.703125 2.984375 51.375 0 
L 42.1875 0 
Q 40.828125 2.734375 40.4375 6.390625 
z
M 39.703125 26.03125 
Q 34.90625 24.078125 25.34375 22.703125 
Q 19.921875 21.921875 17.671875 20.9375 
Q 15.4375 19.96875 14.203125 18.09375 
Q 12.984375 16.21875 12.984375 13.921875 
Q 12.984375 10.40625 15.640625 8.0625 
Q 18.3125 5.71875 23.4375 5.71875 
Q 28.515625 5.71875 32.46875 7.9375 
Q 36.421875 10.15625 38.28125 14.015625 
Q 39.703125 17 39.703125 22.796875 
z
" id="ArialMT-97"/>
       <path d="M 6.390625 0 
L 6.390625 71.578125 
L 15.1875 71.578125 
L 15.1875 0 
z
" id="ArialMT-108"/>
       <path d="M 3.078125 15.484375 
L 11.765625 16.84375 
Q 12.5 11.625 15.84375 8.84375 
Q 19.1875 6.0625 25.203125 6.0625 
Q 31.25 6.0625 34.171875 8.515625 
Q 37.109375 10.984375 37.109375 14.3125 
Q 37.109375 17.28125 34.515625 19 
Q 32.71875 20.171875 25.53125 21.96875 
Q 15.875 24.421875 12.140625 26.203125 
Q 8.40625 27.984375 6.46875 31.125 
Q 4.546875 34.28125 4.546875 38.09375 
Q 4.546875 41.546875 6.125 44.5 
Q 7.71875 47.46875 10.453125 49.421875 
Q 12.5 50.921875 16.03125 51.96875 
Q 19.578125 53.03125 23.640625 53.03125 
Q 29.734375 53.03125 34.34375 51.265625 
Q 38.96875 49.515625 41.15625 46.5 
Q 43.359375 43.5 44.1875 38.484375 
L 35.59375 37.3125 
Q 35.015625 41.3125 32.203125 43.546875 
Q 29.390625 45.796875 24.265625 45.796875 
Q 18.21875 45.796875 15.625 43.796875 
Q 13.03125 41.796875 13.03125 39.109375 
Q 13.03125 37.40625 14.109375 36.03125 
Q 15.1875 34.625 17.484375 33.6875 
Q 18.796875 33.203125 25.25 31.453125 
Q 34.578125 28.953125 38.25 27.359375 
Q 41.9375 25.78125 44.03125 22.75 
Q 46.140625 19.734375 46.140625 15.234375 
Q 46.140625 10.84375 43.578125 6.953125 
Q 41.015625 3.078125 36.171875 0.953125 
Q 31.34375 -1.171875 25.25 -1.171875 
Q 15.140625 -1.171875 9.84375 3.03125 
Q 4.546875 7.234375 3.078125 15.484375 
z
" id="ArialMT-115"/>
       <path d="M 42.09375 16.703125 
L 51.171875 15.578125 
Q 49.03125 7.625 43.21875 3.21875 
Q 37.40625 -1.171875 28.375 -1.171875 
Q 17 -1.171875 10.328125 5.828125 
Q 3.65625 12.84375 3.65625 25.484375 
Q 3.65625 38.578125 10.390625 45.796875 
Q 17.140625 53.03125 27.875 53.03125 
Q 38.28125 53.03125 44.875 45.953125 
Q 51.46875 38.875 51.46875 26.03125 
Q 51.46875 25.25 51.421875 23.6875 
L 12.75 23.6875 
Q 13.234375 15.140625 17.578125 10.59375 
Q 21.921875 6.0625 28.421875 6.0625 
Q 33.25 6.0625 36.671875 8.59375 
Q 40.09375 11.140625 42.09375 16.703125 
z
M 13.234375 30.90625 
L 42.1875 30.90625 
Q 41.609375 37.453125 38.875 40.71875 
Q 34.671875 45.796875 27.984375 45.796875 
Q 21.921875 45.796875 17.796875 41.75 
Q 13.671875 37.703125 13.234375 30.90625 
z
" id="ArialMT-101"/>
       <path id="ArialMT-32"/>
       <path d="M 7.71875 0 
L 7.71875 71.578125 
L 34.71875 71.578125 
Q 41.84375 71.578125 45.609375 70.90625 
Q 50.875 70.015625 54.4375 67.546875 
Q 58.015625 65.09375 60.1875 60.640625 
Q 62.359375 56.203125 62.359375 50.875 
Q 62.359375 41.75 56.546875 35.421875 
Q 50.734375 29.109375 35.546875 29.109375 
L 17.1875 29.109375 
L 17.1875 0 
z
M 17.1875 37.546875 
L 35.6875 37.546875 
Q 44.875 37.546875 48.734375 40.96875 
Q 52.59375 44.390625 52.59375 50.59375 
Q 52.59375 55.078125 50.3125 58.265625 
Q 48.046875 61.46875 44.34375 62.5 
Q 41.9375 63.140625 35.5 63.140625 
L 17.1875 63.140625 
z
" id="ArialMT-80"/>
       <path d="M 3.328125 25.921875 
Q 3.328125 40.328125 11.328125 47.265625 
Q 18.015625 53.03125 27.640625 53.03125 
Q 38.328125 53.03125 45.109375 46.015625 
Q 51.90625 39.015625 51.90625 26.65625 
Q 51.90625 16.65625 48.90625 10.90625 
Q 45.90625 5.171875 40.15625 2 
Q 34.421875 -1.171875 27.640625 -1.171875 
Q 16.75 -1.171875 10.03125 5.8125 
Q 3.328125 12.796875 3.328125 25.921875 
z
M 12.359375 25.921875 
Q 12.359375 15.96875 16.703125 11.015625 
Q 21.046875 6.0625 27.640625 6.0625 
Q 34.1875 6.0625 38.53125 11.03125 
Q 42.875 16.015625 42.875 26.21875 
Q 42.875 35.84375 38.5 40.796875 
Q 34.125 45.75 27.640625 45.75 
Q 21.046875 45.75 16.703125 40.8125 
Q 12.359375 35.890625 12.359375 25.921875 
z
" id="ArialMT-111"/>
       <path d="M 6.640625 61.46875 
L 6.640625 71.578125 
L 15.4375 71.578125 
L 15.4375 61.46875 
z
M 6.640625 0 
L 6.640625 51.859375 
L 15.4375 51.859375 
L 15.4375 0 
z
" id="ArialMT-105"/>
       <path d="M 25.78125 7.859375 
L 27.046875 0.09375 
Q 23.34375 -0.6875 20.40625 -0.6875 
Q 15.625 -0.6875 12.984375 0.828125 
Q 10.359375 2.34375 9.28125 4.8125 
Q 8.203125 7.28125 8.203125 15.1875 
L 8.203125 45.015625 
L 1.765625 45.015625 
L 1.765625 51.859375 
L 8.203125 51.859375 
L 8.203125 64.703125 
L 16.9375 69.96875 
L 16.9375 51.859375 
L 25.78125 51.859375 
L 25.78125 45.015625 
L 16.9375 45.015625 
L 16.9375 14.703125 
Q 16.9375 10.9375 17.40625 9.859375 
Q 17.875 8.796875 18.921875 8.15625 
Q 19.96875 7.515625 21.921875 7.515625 
Q 23.390625 7.515625 25.78125 7.859375 
z
" id="ArialMT-116"/>
       <path d="M 21 0 
L 1.265625 51.859375 
L 10.546875 51.859375 
L 21.6875 20.796875 
Q 23.484375 15.765625 25 10.359375 
Q 26.171875 14.453125 28.265625 20.21875 
L 39.796875 51.859375 
L 48.828125 51.859375 
L 29.203125 0 
z
" id="ArialMT-118"/>
       <path d="M 7.859375 0 
L 7.859375 71.578125 
L 39.59375 71.578125 
Q 49.171875 71.578125 54.140625 69.640625 
Q 59.125 67.71875 62.109375 62.828125 
Q 65.09375 57.953125 65.09375 52.046875 
Q 65.09375 44.4375 60.15625 39.203125 
Q 55.21875 33.984375 44.921875 32.5625 
Q 48.6875 30.765625 50.640625 29 
Q 54.78125 25.203125 58.5 19.484375 
L 70.953125 0 
L 59.03125 0 
L 49.5625 14.890625 
Q 45.40625 21.34375 42.71875 24.75 
Q 40.046875 28.171875 37.921875 29.53125 
Q 35.796875 30.90625 33.59375 31.453125 
Q 31.984375 31.78125 28.328125 31.78125 
L 17.328125 31.78125 
L 17.328125 0 
z
M 17.328125 39.984375 
L 37.703125 39.984375 
Q 44.1875 39.984375 47.84375 41.328125 
Q 51.515625 42.671875 53.421875 45.625 
Q 55.328125 48.578125 55.328125 52.046875 
Q 55.328125 57.125 51.640625 60.390625 
Q 47.953125 63.671875 39.984375 63.671875 
L 17.328125 63.671875 
z
" id="ArialMT-82"/>
      </defs>
      <use xlink:href="#ArialMT-70"/>
      <use x="61.083984" xlink:href="#ArialMT-97"/>
      <use x="116.699219" xlink:href="#ArialMT-108"/>
      <use x="138.916016" xlink:href="#ArialMT-115"/>
      <use x="188.916016" xlink:href="#ArialMT-101"/>
      <use x="244.53125" xlink:href="#ArialMT-32"/>
      <use x="272.314453" xlink:href="#ArialMT-80"/>
      <use x="339.013672" xlink:href="#ArialMT-111"/>
      <use x="394.628906" xlink:href="#ArialMT-115"/>
      <use x="444.628906" xlink:href="#ArialMT-105"/>
      <use x="466.845703" xlink:href="#ArialMT-116"/>
      <use x="494.628906" xlink:href="#ArialMT-105"/>
      <use x="516.845703" xlink:href="#ArialMT-118"/>
      <use x="566.845703" xlink:href="#ArialMT-101"/>
      <use x="622.460938" xlink:href="#ArialMT-32"/>
      <use x="650.244141" xlink:href="#ArialMT-82"/>
      <use x="722.460938" xlink:href="#ArialMT-97"/>
      <use x="778.076172" xlink:href="#ArialMT-116"/>
      <use x="805.859375" xlink:href="#ArialMT-101"/>
     </g>
    </g>
   </g>
   <g id="matplotlib.axis_2">
    <g id="ytick_1">
     <g id="line2d_7">
      <path clip-path="url(#pfa754bf859)" d="M 41.245313 348.103125 
L 599.245312 348.103125 
" style="fill:none;stroke:#ffffff;stroke-linecap:round;stroke-width:0.8;"/>
     </g>
     <g id="text_8">
      <!-- 0.0 -->
      <g style="fill:#262626;" transform="translate(20.345313 351.682031)scale(0.1 -0.1)">
       <use xlink:href="#ArialMT-48"/>
       <use x="55.615234" xlink:href="#ArialMT-46"/>
       <use x="83.398438" xlink:href="#ArialMT-48"/>
      </g>
     </g>
    </g>
    <g id="ytick_2">
     <g id="line2d_8">
      <path clip-path="url(#pfa754bf859)" d="M 41.245313 285.977411 
L 599.245312 285.977411 
" style="fill:none;stroke:#ffffff;stroke-linecap:round;stroke-width:0.8;"/>
     </g>
     <g id="text_9">
      <!-- 0.2 -->
      <g style="fill:#262626;" transform="translate(20.345313 289.556317)scale(0.1 -0.1)">
       <use xlink:href="#ArialMT-48"/>
       <use x="55.615234" xlink:href="#ArialMT-46"/>
       <use x="83.398438" xlink:href="#ArialMT-50"/>
      </g>
     </g>
    </g>
    <g id="ytick_3">
     <g id="line2d_9">
      <path clip-path="url(#pfa754bf859)" d="M 41.245313 223.851696 
L 599.245312 223.851696 
" style="fill:none;stroke:#ffffff;stroke-linecap:round;stroke-width:0.8;"/>
     </g>
     <g id="text_10">
      <!-- 0.4 -->
      <g style="fill:#262626;" transform="translate(20.345313 227.430603)scale(0.1 -0.1)">
       <use xlink:href="#ArialMT-48"/>
       <use x="55.615234" xlink:href="#ArialMT-46"/>
       <use x="83.398438" xlink:href="#ArialMT-52"/>
      </g>
     </g>
    </g>
    <g id="ytick_4">
     <g id="line2d_10">
      <path clip-path="url(#pfa754bf859)" d="M 41.245313 161.725982 
L 599.245312 161.725982 
" style="fill:none;stroke:#ffffff;stroke-linecap:round;stroke-width:0.8;"/>
     </g>
     <g id="text_11">
      <!-- 0.6 -->
      <g style="fill:#262626;" transform="translate(20.345313 165.304888)scale(0.1 -0.1)">
       <use xlink:href="#ArialMT-48"/>
       <use x="55.615234" xlink:href="#ArialMT-46"/>
       <use x="83.398438" xlink:href="#ArialMT-54"/>
      </g>
     </g>
    </g>
    <g id="ytick_5">
     <g id="line2d_11">
      <path clip-path="url(#pfa754bf859)" d="M 41.245313 99.600268 
L 599.245312 99.600268 
" style="fill:none;stroke:#ffffff;stroke-linecap:round;stroke-width:0.8;"/>
     </g>
     <g id="text_12">
      <!-- 0.8 -->
      <g style="fill:#262626;" transform="translate(20.345313 103.179174)scale(0.1 -0.1)">
       <use xlink:href="#ArialMT-48"/>
       <use x="55.615234" xlink:href="#ArialMT-46"/>
       <use x="83.398438" xlink:href="#ArialMT-56"/>
      </g>
     </g>
    </g>
    <g id="ytick_6">
     <g id="line2d_12">
      <path clip-path="url(#pfa754bf859)" d="M 41.245313 37.474554 
L 599.245312 37.474554 
" style="fill:none;stroke:#ffffff;stroke-linecap:round;stroke-width:0.8;"/>
     </g>
     <g id="text_13">
      <!-- 1.0 -->
      <g style="fill:#262626;" transform="translate(20.345313 41.05346)scale(0.1 -0.1)">
       <use xlink:href="#ArialMT-49"/>
       <use x="55.615234" xlink:href="#ArialMT-46"/>
       <use x="83.398438" xlink:href="#ArialMT-48"/>
      </g>
     </g>
    </g>
    <g id="text_14">
     <!-- True Positive Rate -->
     <g style="fill:#262626;" transform="translate(14.357813 225.961406)rotate(-90)scale(0.1 -0.1)">
      <defs>
       <path d="M 25.921875 0 
L 25.921875 63.140625 
L 2.34375 63.140625 
L 2.34375 71.578125 
L 59.078125 71.578125 
L 59.078125 63.140625 
L 35.40625 63.140625 
L 35.40625 0 
z
" id="ArialMT-84"/>
       <path d="M 6.5 0 
L 6.5 51.859375 
L 14.40625 51.859375 
L 14.40625 44 
Q 17.4375 49.515625 20 51.265625 
Q 22.5625 53.03125 25.640625 53.03125 
Q 30.078125 53.03125 34.671875 50.203125 
L 31.640625 42.046875 
Q 28.421875 43.953125 25.203125 43.953125 
Q 22.3125 43.953125 20.015625 42.21875 
Q 17.71875 40.484375 16.75 37.40625 
Q 15.28125 32.71875 15.28125 27.15625 
L 15.28125 0 
z
" id="ArialMT-114"/>
       <path d="M 40.578125 0 
L 40.578125 7.625 
Q 34.515625 -1.171875 24.125 -1.171875 
Q 19.53125 -1.171875 15.546875 0.578125 
Q 11.578125 2.34375 9.640625 5 
Q 7.71875 7.671875 6.9375 11.53125 
Q 6.390625 14.109375 6.390625 19.734375 
L 6.390625 51.859375 
L 15.1875 51.859375 
L 15.1875 23.09375 
Q 15.1875 16.21875 15.71875 13.8125 
Q 16.546875 10.359375 19.234375 8.375 
Q 21.921875 6.390625 25.875 6.390625 
Q 29.828125 6.390625 33.296875 8.421875 
Q 36.765625 10.453125 38.203125 13.9375 
Q 39.65625 17.4375 39.65625 24.078125 
L 39.65625 51.859375 
L 48.4375 51.859375 
L 48.4375 0 
z
" id="ArialMT-117"/>
      </defs>
      <use xlink:href="#ArialMT-84"/>
      <use x="57.333984" xlink:href="#ArialMT-114"/>
      <use x="90.634766" xlink:href="#ArialMT-117"/>
      <use x="146.25" xlink:href="#ArialMT-101"/>
      <use x="201.865234" xlink:href="#ArialMT-32"/>
      <use x="229.648438" xlink:href="#ArialMT-80"/>
      <use x="296.347656" xlink:href="#ArialMT-111"/>
      <use x="351.962891" xlink:href="#ArialMT-115"/>
      <use x="401.962891" xlink:href="#ArialMT-105"/>
      <use x="424.179688" xlink:href="#ArialMT-116"/>
      <use x="451.962891" xlink:href="#ArialMT-105"/>
      <use x="474.179688" xlink:href="#ArialMT-118"/>
      <use x="524.179688" xlink:href="#ArialMT-101"/>
      <use x="579.794922" xlink:href="#ArialMT-32"/>
      <use x="607.578125" xlink:href="#ArialMT-82"/>
      <use x="679.794922" xlink:href="#ArialMT-97"/>
      <use x="735.410156" xlink:href="#ArialMT-116"/>
      <use x="763.193359" xlink:href="#ArialMT-101"/>
     </g>
    </g>
   </g>
   <g id="line2d_13">
    <path clip-path="url(#pfa754bf859)" d="M 41.245313 348.103125 
L 41.287637 348.003373 
L 41.378331 347.737367 
L 41.432747 347.637614 
L 41.535534 347.271856 
L 41.65646 347.138853 
L 41.946682 346.340835 
L 41.964821 346.340835 
L 42.273182 345.576067 
L 42.291321 345.576067 
L 42.291321 345.542817 
L 42.593635 344.611796 
L 42.956413 344.146285 
L 43.893587 342.450496 
L 44.268457 341.785481 
L 44.383337 341.685729 
L 44.619142 341.053965 
L 44.752161 340.920961 
L 45.362836 339.657433 
L 45.495854 339.55768 
L 45.634919 339.391427 
L 45.677243 339.358176 
L 46.372566 337.895143 
L 46.4814 337.396381 
L 46.596279 337.196877 
L 47.726935 335.168581 
L 47.896231 334.503565 
L 48.023203 334.403813 
L 48.101805 334.171058 
L 48.180407 334.104556 
L 48.252962 333.605795 
L 48.28924 333.605795 
L 48.410166 333.506043 
L 48.446444 333.37304 
L 48.494814 333.37304 
L 48.627832 333.273287 
L 48.706434 332.974031 
L 48.730619 332.974031 
L 48.94224 332.50852 
L 49.069212 332.043009 
L 49.232461 331.843505 
L 49.571054 331.510997 
L 49.673841 331.311493 
L 50.024525 330.579976 
L 50.248238 330.31397 
L 50.477997 329.981462 
L 51.802135 326.822641 
L 51.814227 326.822641 
L 51.814227 326.78939 
L 52.24956 326.257378 
L 52.376532 326.091124 
L 52.491412 325.991372 
L 52.600245 325.825118 
L 53.144411 324.628091 
L 53.271383 324.59484 
L 53.271383 324.561589 
L 53.827642 323.098556 
L 53.876012 323.098556 
L 54.607613 321.469269 
L 55.000622 320.438495 
L 55.194103 319.839982 
L 55.34526 319.507474 
L 55.478279 319.440973 
L 55.587112 319.208217 
L 55.599205 319.108465 
L 55.683853 318.942211 
L 55.913612 318.742707 
L 55.968028 318.676205 
L 56.010352 318.676205 
L 56.107093 318.609704 
L 56.185695 318.44345 
L 56.215926 318.44345 
L 56.294528 318.410199 
L 56.294528 318.376948 
L 56.361037 318.210695 
L 56.868926 317.246423 
L 56.917296 317.246423 
L 56.917296 317.179921 
L 56.941481 316.980416 
L 57.026129 316.980416 
L 57.195425 316.647909 
L 57.33449 316.548157 
L 57.981443 315.085123 
L 58.120508 314.985371 
L 58.356313 314.48661 
L 58.948849 313.422586 
L 58.979081 313.156579 
L 59.021405 313.156579 
L 59.269303 313.056827 
L 59.287441 312.957075 
L 59.353951 312.957075 
L 59.734867 312.059304 
L 59.837654 311.893051 
L 59.934395 311.793298 
L 60.121829 311.560543 
L 60.200431 311.460791 
L 60.297172 311.194785 
L 60.303218 311.194785 
L 61.010634 309.964507 
L 61.39155 308.634477 
L 61.50643 308.36847 
L 61.609217 308.301969 
L 61.693865 308.202217 
L 61.802698 307.969461 
L 61.820837 307.969461 
L 62.159429 307.304446 
L 62.244077 307.271195 
L 62.244077 307.237945 
L 62.334772 307.071691 
L 62.346864 307.071691 
L 62.504068 306.971939 
L 62.558484 306.772434 
L 62.606855 306.772434 
L 62.667318 306.672682 
L 62.733827 306.473177 
L 62.758012 306.473177 
L 62.848706 306.373425 
L 62.933354 306.107419 
L 62.999863 306.040917 
L 63.126836 305.907914 
L 63.175206 305.841413 
L 63.247761 305.641908 
L 63.259854 305.641908 
L 63.368687 305.409153 
L 63.471474 305.176398 
L 63.616585 304.910392 
L 63.80402 304.41163 
L 63.864483 304.311878 
L 64.057964 304.079123 
L 64.118427 303.94612 
L 64.160751 303.94612 
L 64.257492 303.879618 
L 64.499343 303.380857 
L 64.565853 303.281105 
L 64.583991 303.214603 
L 64.614223 303.214603 
L 64.977 302.449836 
L 65.049556 302.383334 
L 65.128158 302.117328 
L 65.249083 302.017576 
L 65.400241 301.75157 
L 65.460703 301.651818 
L 65.690462 301.286059 
L 65.811388 301.086555 
L 65.920221 300.820549 
L 66.059286 300.654295 
L 66.198351 300.554543 
L 66.307184 300.255286 
L 66.47648 299.856277 
L 66.549036 299.756524 
L 66.700193 299.490518 
L 66.790887 299.390766 
L 66.887628 298.958506 
L 66.89972 298.958506 
L 66.996461 298.892005 
L 67.105294 298.592748 
L 67.171803 298.526246 
L 67.347146 298.093987 
L 67.38947 297.994234 
L 67.588997 297.761479 
L 67.613183 297.661727 
L 67.71597 297.495473 
L 67.722016 297.495473 
L 67.776432 297.395721 
L 70.007513 293.472131 
L 70.055884 293.472131 
L 70.509355 292.507859 
L 70.944688 291.776343 
L 71.041429 291.67659 
L 71.416299 291.011575 
L 71.51304 290.945074 
L 71.664197 290.579315 
L 71.766984 290.213557 
L 71.815354 290.113805 
L 71.918141 289.9143 
L 71.924187 289.9143 
L 72.166039 289.182784 
L 72.26278 289.083031 
L 72.365566 288.950028 
L 72.371613 288.950028 
L 72.510677 288.517769 
L 72.613464 288.218512 
L 72.655788 288.15201 
L 73.472038 286.223466 
L 73.496223 286.123714 
L 73.580871 285.890959 
L 73.683658 285.791206 
L 73.780398 285.591702 
L 73.786445 285.591702 
L 73.834815 285.558451 
L 73.834815 285.5252 
L 74.300379 284.560928 
L 74.318518 284.560928 
L 74.487814 283.895913 
L 74.699434 283.796161 
L 74.790129 283.596657 
L 74.808268 283.596657 
L 74.86873 283.496904 
L 75.334295 282.466131 
L 75.400804 282.366379 
L 75.509637 282.100372 
L 75.588239 282.00062 
L 75.691026 281.634862 
L 75.824044 281.335605 
L 75.99334 280.936596 
L 76.211007 280.23833 
L 76.301701 279.905822 
L 76.31984 279.905822 
L 76.362164 279.80607 
L 76.446812 279.540064 
L 76.597969 279.440312 
L 76.700756 279.240807 
L 76.737034 279.141055 
L 76.942608 278.708795 
L 77.075626 278.609043 
L 77.244922 278.243285 
L 77.377941 278.077031 
L 77.438404 277.977279 
L 77.523052 277.678022 
L 77.535144 277.678022 
L 78.139773 276.780251 
L 78.309069 276.680499 
L 78.363486 276.447744 
L 78.399764 276.447744 
L 78.45418 276.347992 
L 78.635569 275.948982 
L 78.689986 275.84923 
L 78.798819 275.549973 
L 78.841143 275.483472 
L 78.937884 275.051212 
L 78.94393 275.051212 
L 79.064856 274.95146 
L 79.15555 274.751955 
L 79.312754 274.652203 
L 79.397402 274.552451 
L 79.409494 274.552451 
L 80.074586 273.621429 
L 80.177373 273.355423 
L 80.183419 273.355423 
L 80.262021 273.255671 
L 80.431317 272.989665 
L 80.485734 272.923164 
L 80.522012 272.823411 
L 80.588521 272.823411 
L 80.709447 272.75691 
L 80.763863 272.524154 
L 80.788048 272.524154 
L 80.939206 272.357901 
L 81.041992 272.158396 
L 81.19315 272.058644 
L 81.271751 271.859139 
L 81.320122 271.859139 
L 81.320122 271.792638 
L 81.580112 270.961369 
L 81.628483 270.861617 
L 81.73127 270.695363 
L 81.77964 270.628861 
L 81.888473 270.396106 
L 81.924751 270.296354 
L 82.027538 270.030348 
L 82.075908 269.930595 
L 82.281482 269.664589 
L 82.390315 269.564837 
L 82.499148 269.199079 
L 82.565658 269.099326 
L 82.662398 268.80007 
L 82.741 268.733568 
L 82.819602 268.534064 
L 82.849833 268.534064 
L 82.874018 268.434311 
L 83.031222 268.234807 
L 83.16424 268.135055 
L 83.267027 267.802547 
L 83.381907 267.702795 
L 83.466555 267.50329 
L 83.484694 267.50329 
L 83.629805 267.03778 
L 83.708406 266.938027 
L 83.805147 266.63877 
L 83.883749 266.539018 
L 83.980489 266.273012 
L 84.016767 266.273012 
L 84.161878 265.874003 
L 84.192109 265.774251 
L 84.28885 265.441743 
L 84.379544 265.341991 
L 84.488378 264.976233 
L 84.621396 264.87648 
L 84.693952 264.676976 
L 84.820924 264.577224 
L 84.887433 264.477471 
L 84.99022 264.444221 
L 85.141377 264.045211 
L 85.171608 263.945459 
L 85.25021 263.712704 
L 85.334858 263.612952 
L 85.401367 263.479949 
L 85.437645 263.479949 
L 85.504154 263.413447 
L 85.504154 263.380196 
L 85.709728 262.814933 
L 85.78833 262.715181 
L 85.879024 262.548927 
L 85.891117 262.548927 
L 85.927395 262.482426 
L 86.120876 262.183169 
L 86.151107 262.149918 
L 86.151107 262.116668 
L 86.392959 261.551405 
L 86.471561 261.385151 
L 86.610625 261.285399 
L 86.70132 261.152396 
L 86.713412 261.152396 
L 86.822246 261.052643 
L 86.888755 260.952891 
L 86.918986 260.952891 
L 87.154792 260.553882 
L 87.535708 259.888867 
L 87.638495 259.622861 
L 87.71105 259.523108 
L 87.98918 259.223852 
L 88.073828 259.124099 
L 88.091966 258.991096 
L 88.170568 258.991096 
L 88.218939 258.991096 
L 88.400327 258.592087 
L 88.491022 258.492335 
L 88.62404 258.060075 
L 88.793336 257.860571 
L 88.865892 257.760818 
L 88.99891 257.661066 
L 89.04728 257.594565 
L 89.101697 257.594565 
L 89.137975 257.528063 
L 89.137975 257.494812 
L 89.289132 257.328559 
L 89.543076 256.996051 
L 89.651909 256.663543 
L 89.688187 256.563791 
L 89.79702 256.364287 
L 90.032826 255.932027 
L 90.159798 255.832274 
L 90.359325 255.233761 
L 90.456066 255.134009 
L 90.631408 254.701749 
L 90.776519 254.601996 
L 91.544398 253.338468 
L 91.653231 253.238715 
L 91.756018 252.872957 
L 91.822527 252.773205 
L 91.913222 252.507199 
L 91.925314 252.507199 
L 91.979731 252.440697 
L 91.979731 252.407446 
L 92.124842 252.207942 
L 92.179258 252.10819 
L 92.269953 251.842184 
L 92.288092 251.842184 
L 92.342508 251.742431 
L 92.439249 251.542927 
L 92.560175 251.443175 
L 92.662962 251.276921 
L 92.753656 251.177168 
L 92.941091 250.744909 
L 92.971322 250.678407 
L 93.080156 250.179646 
L 93.17085 250.079894 
L 93.273637 249.91364 
L 93.388516 249.813887 
L 93.473164 249.614383 
L 93.491303 249.614383 
L 93.648507 249.514631 
L 93.793618 249.248625 
L 93.890358 249.148872 
L 93.950821 248.849616 
L 93.981053 248.849616 
L 94.017331 248.749863 
L 94.114071 248.583609 
L 94.234997 248.517108 
L 94.906135 247.28683 
L 94.984737 247.253579 
L 94.984737 247.220328 
L 95.075431 246.921072 
L 95.09357 246.921072 
L 95.202403 246.821319 
L 95.30519 246.488812 
L 95.401931 246.389059 
L 95.444255 246.189555 
L 95.510764 246.189555 
L 95.704245 245.857047 
L 95.776801 245.757295 
L 95.879588 245.591041 
L 95.885634 245.591041 
L 96.05493 245.258534 
L 96.121439 245.158781 
L 96.212134 244.626769 
L 96.224226 244.626769 
L 96.345152 244.527017 
L 96.423754 244.327513 
L 96.453985 244.327513 
L 96.568865 244.261011 
L 96.653513 243.961754 
L 96.750254 243.895253 
L 96.750254 243.862002 
L 96.871179 243.595996 
L 96.895365 243.496244 
L 96.980013 243.496244 
L 97.17954 243.230238 
L 97.312559 243.130485 
L 97.397207 243.030733 
L 97.530225 242.930981 
L 97.590688 242.764727 
L 97.633012 242.764727 
L 97.790215 242.664975 
L 97.899049 242.332467 
L 97.995789 242.232715 
L 98.062298 241.99996 
L 98.207409 241.900207 
L 98.316243 241.634201 
L 98.388798 241.534449 
L 98.830177 240.603428 
L 98.908779 240.503676 
L 99.084121 240.104666 
L 99.223186 240.038165 
L 99.332019 239.772159 
L 99.452945 239.672407 
L 99.507362 239.472902 
L 99.791537 239.273398 
L 99.900371 239.007391 
L 100.172454 238.974141 
L 100.801268 237.910116 
L 101.272878 237.245101 
L 101.369619 236.979095 
L 101.375665 236.979095 
L 101.417989 236.879343 
L 101.526823 236.580086 
L 101.575193 236.480334 
L 101.684026 236.181077 
L 101.792859 236.114576 
L 102.10122 235.582563 
L 102.143544 235.516062 
L 102.252377 235.250056 
L 102.343072 235.150304 
L 102.42772 234.917548 
L 102.518414 234.917548 
L 102.518414 234.817796 
L 102.645386 234.718044 
L 102.820729 234.618292 
L 102.923516 234.485289 
L 103.086765 234.385536 
L 103.098858 234.285784 
L 103.183506 234.285784 
L 103.576515 233.753772 
L 103.679302 233.65402 
L 103.769996 233.388014 
L 103.872783 233.354763 
L 103.963477 233.055506 
L 104.011848 233.022255 
L 104.011848 232.989004 
L 104.181144 232.623246 
L 104.211375 232.523494 
L 104.314162 232.35724 
L 104.459273 232.257488 
L 104.568106 231.958231 
L 104.592292 231.858479 
L 104.689032 231.525971 
L 104.882513 231.126962 
L 104.991347 230.860956 
L 105.057856 230.761204 
L 105.14855 230.628201 
L 105.160643 230.628201 
L 105.239245 230.528448 
L 105.281569 230.295693 
L 105.329939 230.295693 
L 105.384355 230.195941 
L 105.481096 229.963186 
L 105.6383 229.863433 
L 105.73504 229.597427 
L 105.741087 229.597427 
L 105.783411 229.530926 
L 105.874105 229.231669 
L 105.880151 229.231669 
L 105.970846 229.131917 
L 105.988984 229.032164 
L 106.079679 229.032164 
L 106.212697 228.899161 
L 106.309438 228.83266 
L 106.357808 228.732908 
L 106.381993 228.732908 
L 106.569428 228.633155 
L 106.672215 228.500152 
L 106.81128 228.4004 
L 106.908021 228.300648 
L 107.155918 227.96814 
L 107.240566 227.868388 
L 107.307076 227.735385 
L 107.548927 227.635633 
L 107.65776 227.50263 
L 107.730316 227.402877 
L 107.802871 227.136871 
L 107.88752 227.037119 
L 107.996353 226.904116 
L 108.081001 226.804364 
L 108.268436 226.20585 
L 108.480056 226.106098 
L 108.564704 225.806841 
L 108.582843 225.806841 
L 108.619121 225.707089 
L 108.649352 225.640587 
L 108.715861 225.640587 
L 108.824694 225.607336 
L 108.915389 225.30808 
L 108.921435 225.30808 
L 109.114916 224.975572 
L 109.217703 224.87582 
L 109.393046 224.476811 
L 109.495833 224.377058 
L 109.586527 224.210805 
L 109.59862 224.210805 
L 109.689314 224.111052 
L 109.755823 223.911548 
L 109.798147 223.911548 
L 109.949304 223.811796 
L 110.052091 223.545789 
L 110.173017 223.512539 
L 110.173017 223.446037 
L 110.632535 222.481765 
L 110.886479 222.082756 
L 111.067868 221.783499 
L 111.140423 221.683747 
L 111.212979 221.450992 
L 111.321812 221.35124 
L 111.370182 221.018732 
L 111.40646 221.018732 
L 111.515293 220.95223 
L 111.515293 220.91898 
L 111.986904 220.220714 
L 112.05946 220.120961 
L 112.083645 220.021209 
L 112.144108 220.021209 
L 112.234802 219.921457 
L 112.337589 219.522448 
L 112.422237 219.422696 
L 112.53107 219.023687 
L 112.597579 218.923934 
L 112.845477 218.524925 
L 112.869662 218.458424 
L 112.966403 218.258919 
L 112.978496 218.258919 
L 113.038958 218.192418 
L 113.038958 218.159167 
L 113.341273 217.760158 
L 113.419875 217.42765 
L 113.540801 217.327898 
L 113.60731 217.095143 
L 113.637541 217.095143 
L 113.667773 217.095143 
L 113.776606 216.862387 
L 113.873346 216.829137 
L 113.873346 216.795886 
L 114.56867 215.731862 
L 114.635179 215.698611 
L 114.725873 215.499106 
L 114.737966 215.499106 
L 114.840753 215.399354 
L 114.94354 215.199849 
L 115.028188 215.133348 
L 115.088651 215.033596 
L 115.137021 215.033596 
L 115.221669 214.933843 
L 115.378873 214.734339 
L 115.451428 214.634587 
L 115.626771 214.435082 
L 115.699326 214.202327 
L 115.711419 214.202327 
L 116.733242 212.539789 
L 116.811843 212.440037 
L 116.920677 212.207281 
L 116.981139 212.107529 
L 117.053695 211.941275 
L 117.059741 211.941275 
L 117.66437 210.977003 
L 117.767157 210.644496 
L 117.803435 210.544743 
L 117.912268 210.278737 
L 118.015055 210.178985 
L 118.166212 209.846478 
L 118.281092 209.746725 
L 118.432249 209.480719 
L 118.631777 209.380967 
L 118.728517 209.114961 
L 118.74061 209.114961 
L 118.78898 209.08171 
L 118.867582 208.749203 
L 118.879674 208.749203 
L 118.970369 208.64945 
L 119.079202 208.316943 
L 119.169896 208.217191 
L 119.266637 207.984435 
L 119.363378 207.884683 
L 119.466165 207.75168 
L 119.70197 207.651928 
L 119.798711 207.419172 
L 119.859173 207.385922 
L 119.943822 207.020163 
L 119.96196 207.020163 
L 120.264275 206.720906 
L 120.367062 206.388399 
L 120.487988 206.288647 
L 120.602867 206.155644 
L 120.772163 206.055891 
L 120.899135 205.956139 
L 120.953552 205.690133 
L 120.995876 205.690133 
L 122.453032 203.528834 
L 122.53768 203.296078 
L 122.561865 203.296078 
L 122.719069 202.863819 
L 122.870226 202.764066 
L 122.966966 202.597813 
L 123.039522 202.49806 
L 123.148355 202.265305 
L 123.33579 202.165553 
L 123.402299 202.132302 
L 123.553457 202.132302 
L 123.638105 201.899547 
L 123.656243 201.899547 
L 123.843678 201.799794 
L 123.843678 201.766544 
L 123.87391 201.766544 
L 124.109715 201.434036 
L 124.212502 201.201281 
L 124.393891 201.001776 
L 124.514817 200.902024 
L 124.617604 200.73577 
L 124.702252 200.636018 
L 124.702252 200.602767 
L 124.805039 200.602767 
L 124.913872 200.536266 
L 125.016659 200.237009 
L 125.119446 200.137257 
L 125.167816 199.937752 
L 125.192001 199.937752 
L 125.379436 199.738247 
L 125.47013 199.472241 
L 125.603149 199.372489 
L 125.705936 199.172985 
L 125.711982 199.172985 
L 125.814769 199.006731 
L 125.929648 198.906979 
L 126.038482 198.607722 
L 126.189639 198.54122 
L 126.268241 198.374966 
L 126.371028 198.275214 
L 126.528231 198.009208 
L 126.649157 197.909456 
L 126.721712 197.709951 
L 126.751944 197.709951 
L 126.933333 197.510447 
L 127.03612 197.410695 
L 127.090536 197.111438 
L 127.144953 197.111438 
L 127.374712 197.011685 
L 127.477499 196.712429 
L 127.544008 196.612676 
L 127.652841 196.31342 
L 127.810045 196.213667 
L 127.918878 195.88116 
L 127.985387 195.781407 
L 128.088174 195.349148 
L 128.2091 195.249395 
L 128.330026 195.116392 
L 128.37235 195.049891 
L 128.475137 194.783885 
L 128.58397 194.684132 
L 128.686757 194.517879 
L 128.801636 194.418126 
L 128.910469 194.185371 
L 129.019303 194.085619 
L 129.128136 193.819613 
L 129.152321 193.753111 
L 129.261154 193.453854 
L 129.321617 193.387353 
L 129.394173 193.121347 
L 129.424404 193.121347 
L 129.490913 193.021595 
L 129.581608 192.921842 
L 129.5937 192.921842 
L 129.654163 192.82209 
L 129.726719 192.755589 
L 129.738811 192.755589 
L 129.871829 192.655836 
L 129.980663 192.522833 
L 130.149959 192.423081 
L 130.258792 192.090573 
L 130.403903 191.990821 
L 130.464366 191.691564 
L 130.476458 191.691564 
L 130.633662 191.591812 
L 130.724356 191.359057 
L 130.851328 191.259304 
L 130.923884 191.093051 
L 130.954115 191.093051 
L 130.978301 191.093051 
L 130.978301 190.993298 
L 131.564791 190.328283 
L 131.643392 190.162029 
L 131.649439 190.162029 
L 131.776411 190.095528 
L 131.879198 189.829522 
L 131.933614 189.76302 
L 132.018262 189.563516 
L 132.042448 189.563516 
L 132.096864 189.463764 
L 132.205697 189.330761 
L 132.272207 189.231008 
L 132.483827 188.632495 
L 132.59266 188.532742 
L 132.731725 188.366489 
L 133.070317 187.734724 
L 133.136826 187.634972 
L 133.245659 187.53522 
L 133.269844 187.435467 
L 133.348446 187.269214 
L 133.421002 187.202712 
L 133.517742 187.036458 
L 133.529835 187.036458 
L 133.662853 186.936706 
L 133.759594 186.737202 
L 133.771686 186.737202 
L 133.856335 186.637449 
L 134.146556 186.138688 
L 134.225158 186.038936 
L 134.30376 185.80618 
L 134.448871 185.706428 
L 134.624213 185.307419 
L 134.696769 185.207667 
L 134.769324 184.974911 
L 134.793509 184.974911 
L 134.902343 184.875159 
L 134.980944 184.775407 
L 135.00513 184.775407 
L 135.023268 184.708905 
L 135.023268 184.675655 
L 135.234889 184.077141 
L 135.343722 184.010639 
L 135.500925 183.777884 
L 135.567435 183.678132 
L 135.85161 183.345624 
L 135.978582 183.245872 
L 136.069277 182.946615 
L 136.141832 182.846863 
L 136.238573 182.747111 
L 136.395776 182.647358 
L 136.504609 182.514355 
L 136.71623 182.414603 
L 136.825063 182.181848 
L 136.964128 182.082096 
L 137.072961 181.949093 
L 137.272488 181.84934 
L 137.369229 181.716337 
L 137.375275 181.716337 
L 137.46597 181.649836 
L 137.574803 181.38383 
L 137.77433 181.284077 
L 137.858978 181.117824 
L 137.943626 181.018071 
L 138.046413 180.818567 
L 138.088737 180.718815 
L 138.197571 180.386307 
L 138.366867 180.220053 
L 138.469654 180.120301 
L 138.548255 179.920796 
L 138.560348 179.920796 
L 138.614765 179.887546 
L 138.614765 179.854295 
L 138.747783 179.521787 
L 139.116607 179.023026 
L 139.231486 178.956524 
L 139.340319 178.823521 
L 139.400782 178.75702 
L 139.479384 178.624017 
L 139.48543 178.624017 
L 139.606356 178.524265 
L 139.715189 178.258258 
L 139.854254 178.158506 
L 139.872393 178.092005 
L 139.944948 178.092005 
L 140.676549 177.260736 
L 140.77329 177.160984 
L 140.870031 176.861727 
L 140.882123 176.861727 
L 141.045373 176.761974 
L 141.220716 176.396216 
L 141.31141 176.296464 
L 141.468613 176.030458 
L 141.619771 175.930706 
L 141.770928 175.598198 
L 141.903946 175.498446 
L 141.988594 175.099437 
L 142.145798 175.032935 
L 142.248585 174.80018 
L 142.399742 174.733678 
L 142.496483 174.467672 
L 142.508575 174.467672 
L 142.544853 174.401171 
L 142.64764 174.101914 
L 142.768566 174.002162 
L 142.871353 173.769406 
L 142.980186 173.736156 
L 142.980186 173.669654 
L 143.058788 173.337146 
L 143.228084 173.237394 
L 143.336917 173.104391 
L 143.39738 173.004639 
L 143.469935 172.838385 
L 143.506213 172.838385 
L 143.590861 172.738633 
L 144.969415 171.009593 
L 145.048017 170.909841 
L 145.211267 170.41108 
L 145.332193 170.344578 
L 145.43498 170.078572 
L 145.525674 169.97882 
L 145.634507 169.746065 
L 145.797757 169.646312 
L 145.936822 169.380306 
L 145.991238 169.280554 
L 146.075886 169.047799 
L 146.100072 169.047799 
L 146.323784 168.948047 
L 146.347969 168.781793 
L 146.414479 168.781793 
L 148.276736 166.387738 
L 148.391615 166.221484 
L 148.494402 166.02198 
L 148.548819 165.922228 
L 148.730208 165.456717 
L 148.778578 165.356965 
L 148.875319 165.190711 
L 149.014383 165.090959 
L 149.111124 164.924705 
L 149.207865 164.824953 
L 149.304605 164.592197 
L 149.310651 164.592197 
L 149.437624 164.492445 
L 149.534364 164.193188 
L 149.594827 164.126687 
L 149.679475 163.893931 
L 149.836679 163.860681 
L 149.939466 163.494922 
L 150.096669 163.39517 
L 150.169225 163.228916 
L 150.362706 163.129164 
L 150.429215 162.863158 
L 150.580372 162.763406 
L 151.535686 161.233871 
L 151.668704 161.134119 
L 151.783584 160.967865 
L 151.856139 160.868113 
L 151.928695 160.668608 
L 151.95288 160.668608 
L 152.243102 160.269599 
L 152.460768 160.169847 
L 152.491 160.036844 
L 152.696574 159.970342 
L 152.847731 159.837339 
L 152.896101 159.737587 
L 152.986796 159.538082 
L 152.998888 159.538082 
L 153.095629 159.43833 
L 153.307249 159.139073 
L 153.361666 159.105822 
L 153.361666 159.039321 
L 153.518869 158.806566 
L 153.676073 158.706813 
L 153.784906 158.54056 
L 153.936063 158.440807 
L 154.044896 158.307804 
L 154.2021 158.208052 
L 154.2021 158.174801 
L 154.304887 158.174801 
L 154.401628 158.075049 
L 154.510461 157.842294 
L 154.613248 157.742541 
L 154.667664 157.642789 
L 154.709988 157.642789 
L 155.350895 156.911273 
L 155.65321 156.81152 
L 155.762043 156.645266 
L 155.889015 156.545514 
L 155.991802 156.37926 
L 156.088542 156.279508 
L 156.130866 156.213007 
L 156.197376 156.213007 
L 156.251792 156.146505 
L 156.366672 155.813998 
L 156.554107 155.714245 
L 156.668986 155.647744 
L 156.789912 155.547992 
L 156.868514 155.448239 
L 156.898745 155.348487 
L 156.971301 155.348487 
L 157.043856 155.281985 
L 157.134551 155.182233 
L 157.436865 155.082481 
L 157.545698 154.949478 
L 157.684763 154.849726 
L 157.714994 154.683472 
L 157.751272 154.683472 
L 157.968939 154.61697 
L 158.053587 154.417466 
L 158.071725 154.417466 
L 158.228929 154.118209 
L 158.410318 154.018457 
L 158.513105 153.752451 
L 158.591706 153.652698 
L 158.682401 153.320191 
L 158.803327 153.220439 
L 158.803327 153.187188 
L 159.12378 153.087435 
L 159.196335 152.954432 
L 159.347493 152.887931 
L 159.347493 152.85468 
L 159.716316 152.056662 
L 159.764687 151.990161 
L 159.855381 151.823907 
L 159.976307 151.724154 
L 160.012585 151.624402 
L 160.079094 151.624402 
L 160.272575 151.358396 
L 160.405593 151.258644 
L 160.502334 150.793133 
L 160.50838 150.793133 
L 160.617214 150.693381 
L 160.677676 150.460626 
L 160.72 150.460626 
L 160.810695 150.360873 
L 160.859065 150.19462 
L 160.913482 150.19462 
L 161.143241 150.094867 
L 161.246028 149.862112 
L 161.379046 149.76236 
L 161.590666 149.463103 
L 161.735777 149.363351 
L 161.814379 149.263598 
L 161.84461 149.263598 
L 162.975267 148.232825 
L 163.065961 148.099822 
L 163.072007 148.099822 
L 163.235257 148.00007 
L 163.325951 147.867067 
L 163.331998 147.867067 
L 163.398507 147.767314 
L 163.50734 147.501308 
L 163.561757 147.434807 
L 163.803608 146.670039 
L 163.972904 146.570287 
L 164.051506 146.470535 
L 164.075691 146.470535 
L 164.124062 146.370783 
L 164.269173 145.938523 
L 164.613811 145.606015 
L 164.656135 145.439761 
L 164.873802 145.340009 
L 164.970542 145.207006 
L 165.024959 145.107254 
L 165.151931 144.807997 
L 165.454245 144.475489 
L 165.502616 144.375737 
L 165.563079 144.375737 
L 165.70819 144.275985 
L 165.853301 144.04323 
L 165.956087 143.943477 
L 166.034689 143.810474 
L 166.167708 143.743973 
L 166.29468 143.644221 
L 166.403513 143.544468 
L 166.494207 143.211961 
L 166.5063 143.211961 
L 166.657457 143.145459 
L 166.760244 142.979205 
L 166.76629 142.979205 
L 166.88117 142.912704 
L 167.032327 142.812952 
L 167.098836 142.713199 
L 167.123021 142.713199 
L 167.237901 142.613447 
L 167.346734 142.413943 
L 167.503938 142.31419 
L 167.606725 142.181187 
L 167.782067 142.114686 
L 167.84253 141.948432 
L 168.138798 141.84868 
L 168.187168 141.748927 
L 168.229492 141.748927 
L 168.350418 141.649175 
L 168.350418 141.615924 
L 168.555992 141.516172 
L 168.622501 141.41642 
L 168.797844 141.316668 
L 168.906677 141.083912 
L 169.027603 140.98416 
L 169.100158 140.851157 
L 169.136436 140.851157 
L 169.305732 140.751405 
L 169.408519 140.585151 
L 169.644324 140.485399 
L 169.753158 140.352396 
L 169.81362 140.252643 
L 169.910361 140.11964 
L 169.988963 140.019888 
L 170.09175 139.853634 
L 170.097796 139.853634 
L 170.200583 139.753882 
L 170.291277 139.587628 
L 170.30337 139.587628 
L 170.539175 139.487876 
L 170.62987 139.321622 
L 170.648008 139.321622 
L 170.787073 139.22187 
L 170.895906 138.989115 
L 170.980554 138.889362 
L 171.204267 138.490353 
L 171.319147 138.390601 
L 171.494489 138.191096 
L 171.706109 138.091344 
L 171.814942 137.858589 
L 171.9661 137.758837 
L 172.044701 137.49283 
L 172.207951 137.160323 
L 172.334923 137.060571 
L 172.467942 136.861066 
L 172.516312 136.761314 
L 172.582821 136.59506 
L 172.64933 136.528559 
L 172.64933 136.495308 
L 173.078617 135.896794 
L 173.332561 135.797042 
L 173.417209 135.531036 
L 173.56232 135.431284 
L 173.659061 135.298281 
L 173.671153 135.298281 
L 173.846496 135.198528 
L 173.955329 135.098776 
L 174.118579 134.999024 
L 174.215319 134.83277 
L 174.366477 134.733018 
L 174.469264 134.467012 
L 174.590189 134.367259 
L 174.668791 134.167755 
L 174.68693 134.167755 
L 174.807856 134.068003 
L 174.856226 133.96825 
L 174.874365 133.96825 
L 175.055754 133.901749 
L 175.146448 133.602492 
L 175.249235 133.50274 
L 175.376207 133.402987 
L 175.48504 133.303235 
L 175.581781 133.037229 
L 175.684568 132.937477 
L 175.781309 132.671471 
L 175.992929 132.571718 
L 176.101762 132.372214 
L 176.228734 132.272462 
L 176.325475 131.973205 
L 176.4464 131.873453 
L 176.555234 131.74045 
L 176.694298 131.640697 
L 176.694298 131.607446 
L 176.778946 131.607446 
L 176.863594 131.540945 
L 176.960335 131.34144 
L 177.165909 131.141936 
L 177.250557 131.042184 
L 177.298927 130.942431 
L 177.353344 130.942431 
L 177.401714 130.842679 
L 177.504501 130.576673 
L 177.673797 130.476921 
L 177.776584 130.343918 
L 177.94588 130.244165 
L 178.024482 130.044661 
L 178.054714 130.044661 
L 178.169593 129.944909 
L 178.266334 129.678903 
L 178.417491 129.57915 
L 178.471908 129.446147 
L 178.520278 129.446147 
L 178.556556 129.346395 
L 178.617018 129.080389 
L 178.822592 128.980637 
L 178.895148 128.781132 
L 179.082583 128.614878 
L 179.18537 128.515126 
L 179.336527 128.448625 
L 179.336527 128.415374 
L 179.463499 128.24912 
L 179.596517 128.149368 
L 179.717443 128.082866 
L 179.844415 127.983114 
L 179.953249 127.750359 
L 180.14673 127.650606 
L 180.249517 127.318099 
L 180.35835 127.218347 
L 180.449044 127.151845 
L 180.5216 127.085344 
L 180.5216 127.052093 
L 180.642526 126.852588 
L 180.757405 126.752836 
L 180.848099 126.619833 
L 180.866238 126.619833 
L 181.005303 126.520081 
L 181.077858 126.387078 
L 181.180645 126.287325 
L 181.277386 126.121072 
L 181.374127 126.021319 
L 181.549469 125.821815 
L 181.706673 125.722063 
L 181.815506 125.522558 
L 181.924339 125.456056 
L 182.123867 124.924044 
L 182.244792 124.824292 
L 182.32944 124.691289 
L 182.498737 124.591537 
L 182.60757 124.392032 
L 183.175921 123.42776 
L 183.296847 123.261507 
L 183.399634 123.161754 
L 183.484282 123.028751 
L 183.56893 122.96225 
L 183.671717 122.729494 
L 183.877291 122.363736 
L 184.010309 122.263984 
L 184.119142 122.09773 
L 184.185651 121.997978 
L 184.31867 121.831724 
L 184.494012 121.731972 
L 184.57866 121.532467 
L 184.596799 121.532467 
L 184.893067 121.432715 
L 185.026086 121.133458 
L 185.16515 121.066957 
L 185.237706 120.933954 
L 185.249798 120.933954 
L 185.533974 120.7677 
L 185.957214 120.667947 
L 186.047909 120.601446 
L 186.217205 120.501694 
L 186.350223 120.33544 
L 186.446964 120.268938 
L 186.604167 119.90318 
L 186.719047 119.836679 
L 186.821834 119.637174 
L 186.912528 119.537422 
L 187.051593 119.204914 
L 187.20275 119.105162 
L 187.305537 119.03866 
L 187.402278 118.938908 
L 187.505065 118.739404 
L 187.589713 118.639651 
L 187.698546 118.506648 
L 187.765055 118.406896 
L 187.831564 118.307144 
L 188.031092 118.207391 
L 188.11574 118.041138 
L 188.285036 117.941385 
L 188.339453 117.841633 
L 188.393869 117.841633 
L 188.460378 117.741881 
L 188.599443 117.542376 
L 188.829202 117.442624 
L 188.91385 117.342872 
L 188.938035 117.342872 
L 189.040822 117.243119 
L 189.12547 117.043615 
L 189.137563 117.043615 
L 189.228257 116.877361 
L 189.318952 116.611355 
L 189.324998 116.611355 
L 189.566849 116.345349 
L 189.639405 116.245597 
L 189.681729 116.145845 
L 189.718007 116.145845 
L 189.814747 116.046092 
L 189.923581 115.94634 
L 190.032414 115.846588 
L 190.15334 115.647083 
L 190.510071 115.547331 
L 190.630996 115.347826 
L 190.751922 115.248074 
L 190.860755 115.148322 
L 190.927265 115.04857 
L 191.024005 114.782563 
L 191.036098 114.782563 
L 191.120746 114.682811 
L 191.229579 114.416805 
L 191.380736 114.350304 
L 191.48957 114.217301 
L 191.580264 114.117548 
L 191.719329 113.884793 
L 191.79793 113.785041 
L 191.900717 113.618787 
L 192.021643 113.519035 
L 192.094199 113.352781 
L 192.130476 113.352781 
L 192.251402 113.253029 
L 192.317911 113.186527 
L 192.354189 113.186527 
L 192.396513 113.120026 
L 192.4993 112.687766 
L 192.529531 112.588014 
L 192.753244 112.288757 
L 192.87417 112.189004 
L 192.928587 111.956249 
L 193.055559 111.856497 
L 193.152299 111.623742 
L 193.333688 111.523989 
L 193.442521 111.191482 
L 193.57554 111.091729 
L 193.67228 110.892225 
L 193.744836 110.825723 
L 193.829484 110.65947 
L 194.041104 110.592968 
L 194.113659 110.393464 
L 194.149937 110.393464 
L 194.391789 110.293711 
L 194.494576 110.094207 
L 194.579224 109.994454 
L 194.627594 109.927953 
L 194.802936 109.861451 
L 194.875492 109.728448 
L 194.893631 109.728448 
L 195.056881 109.628696 
L 195.147575 109.395941 
L 195.22013 109.329439 
L 195.328964 109.096684 
L 195.425704 108.996932 
L 195.528491 108.797427 
L 195.740111 108.631173 
L 195.830806 108.531421 
L 195.9215 108.398418 
L 195.975917 108.298666 
L 196.08475 108.132412 
L 196.169398 108.065911 
L 196.266139 107.866406 
L 196.393111 107.766654 
L 196.501944 107.633651 
L 196.659147 107.567149 
L 196.737749 107.367645 
L 196.767981 107.367645 
L 197.015879 107.267892 
L 197.09448 107.001886 
L 197.112619 107.001886 
L 197.233545 106.902134 
L 197.294008 106.802382 
L 197.433073 106.70263 
L 197.433073 106.669379 
L 197.541906 106.669379 
L 197.608415 106.569627 
L 197.759572 106.336871 
L 197.934915 106.237119 
L 198.031655 105.904611 
L 198.140488 105.804859 
L 198.200951 105.538853 
L 198.249322 105.538853 
L 198.376294 105.439101 
L 198.509312 105.239596 
L 198.618145 105.139844 
L 198.720932 104.940339 
L 198.87209 104.873838 
L 198.96883 104.574581 
L 199.077663 104.474829 
L 199.18045 104.408327 
L 199.259052 104.308575 
L 199.664154 103.909566 
L 199.748802 103.809814 
L 199.839496 103.610309 
L 199.845542 103.610309 
L 200.063209 103.510557 
L 200.111579 103.344303 
L 200.147857 103.344303 
L 200.329245 103.244551 
L 200.395755 102.945294 
L 200.67993 102.878792 
L 200.776671 102.712539 
L 200.867365 102.612786 
L 200.994337 102.513034 
L 201.109217 102.413282 
L 201.199911 102.180527 
L 201.21805 102.180527 
L 201.296652 102.080774 
L 201.399439 101.814768 
L 201.586874 101.715016 
L 201.623151 101.615264 
L 201.695707 101.615264 
L 201.913373 101.515511 
L 201.937559 101.482261 
L 202.155225 101.382508 
L 202.233827 101.183004 
L 202.487771 101.083252 
L 202.596604 100.916998 
L 202.7659 100.850496 
L 202.7659 100.817246 
L 202.88078 100.750744 
L 202.959382 100.650992 
L 203.068215 100.418236 
L 203.164955 100.351735 
L 203.243557 100.15223 
L 203.25565 100.15223 
L 203.35239 100.052478 
L 203.430992 99.919475 
L 203.545872 99.819723 
L 203.745399 99.520466 
L 203.848186 99.420714 
L 203.957019 99.221209 
L 204.114223 99.121457 
L 204.21701 98.921952 
L 204.483047 98.8222 
L 204.507232 98.755699 
L 204.585833 98.755699 
L 204.670482 98.689197 
L 204.670482 98.655946 
L 205.045352 98.157185 
L 205.305342 98.057433 
L 205.414175 97.791427 
L 205.529055 97.691674 
L 205.595564 97.625173 
L 205.625795 97.625173 
L 205.704397 97.525421 
L 205.782999 97.292665 
L 206.030897 97.226164 
L 206.109499 96.993409 
L 206.284841 96.893656 
L 206.345304 96.793904 
L 206.532739 96.694152 
L 206.599248 96.527898 
L 206.829007 96.428146 
L 206.829007 96.394895 
L 206.93784 96.394895 
L 207.046673 96.328393 
L 207.046673 96.261892 
L 207.14946 96.261892 
L 207.336895 96.16214 
L 207.336895 96.128889 
L 207.445729 96.128889 
L 207.566654 96.062387 
L 207.566654 96.029137 
L 207.748043 95.630127 
L 207.790367 95.530375 
L 207.893154 95.330871 
L 208.189422 95.164617 
L 208.213607 95.064865 
L 208.310348 94.998363 
L 208.322441 94.998363 
L 208.455459 94.832109 
L 208.570339 94.732357 
L 208.636848 94.665856 
L 208.679172 94.665856 
L 208.733588 94.599354 
L 208.842422 94.333348 
L 209.120551 94.233596 
L 209.368449 93.867837 
L 209.483328 93.768085 
L 209.574023 93.635082 
L 209.592161 93.635082 
L 209.67681 93.601831 
L 209.67681 93.53533 
L 209.779596 93.435578 
L 210.015402 93.335825 
L 210.118189 93.202822 
L 210.408411 93.10307 
L 210.456781 93.003318 
L 210.47492 93.003318 
L 210.589799 92.903565 
L 210.674447 92.770562 
L 210.68654 92.770562 
L 210.73491 92.67081 
L 210.843743 92.305052 
L 210.976762 92.2053 
L 211.067456 92.105547 
L 211.140012 92.005795 
L 211.230706 91.839541 
L 211.369771 91.739789 
L 211.430234 91.573535 
L 211.460465 91.573535 
L 211.59953 91.473783 
L 211.702317 91.374031 
L 211.823242 91.274278 
L 211.901844 91.141275 
L 212.155788 91.041523 
L 212.216251 90.941771 
L 212.258575 90.941771 
L 212.385547 90.842018 
L 212.476242 90.609263 
L 212.488334 90.609263 
L 212.591121 90.509511 
L 212.687862 90.343257 
L 212.802741 90.243505 
L 212.887389 90.077251 
L 213.044593 89.977499 
L 213.074824 89.910997 
L 213.153426 89.910997 
L 213.232028 89.811245 
L 213.304583 89.711493 
L 213.425509 89.61174 
L 213.504111 89.478737 
L 213.534342 89.478737 
L 213.764102 89.378985 
L 213.836657 89.179481 
L 213.872935 89.179481 
L 214.054323 89.079728 
L 214.096647 89.013227 
L 214.163157 89.013227 
L 214.392916 88.946725 
L 214.48361 88.780472 
L 214.501749 88.780472 
L 214.677091 88.680719 
L 214.755693 88.514465 
L 214.785924 88.514465 
L 214.852434 88.447964 
L 214.852434 88.414713 
L 214.997545 88.148707 
L 215.130563 88.048955 
L 215.23335 87.716447 
L 215.366368 87.616695 
L 215.475202 87.450441 
L 215.65659 87.350689 
L 215.65659 87.317438 
L 215.711007 87.317438 
L 215.946812 87.217686 
L 216.037507 87.018181 
L 216.049599 87.018181 
L 216.140293 86.918429 
L 216.345867 86.718925 
L 216.545395 86.619172 
L 216.654228 86.452919 
L 216.769108 86.386417 
L 216.865848 86.220163 
L 216.938404 86.120411 
L 216.938404 86.08716 
L 217.017005 86.08716 
L 217.228626 85.987408 
L 217.337459 85.821154 
L 217.597449 85.422145 
L 217.809069 85.322393 
L 217.863486 85.18939 
L 217.899764 85.18939 
L 218.026736 85.089638 
L 218.129523 84.823631 
L 218.250449 84.723879 
L 218.32905 84.457873 
L 218.347189 84.457873 
L 218.419745 84.391372 
L 218.516485 84.258369 
L 218.528578 84.258369 
L 218.70392 84.158616 
L 218.800661 84.092115 
L 218.994142 83.992363 
L 219.07879 83.759607 
L 219.102975 83.759607 
L 219.296457 83.659855 
L 219.375059 83.593353 
L 219.532262 83.526852 
L 219.532262 83.493601 
L 219.66528 83.327347 
L 219.768067 83.227595 
L 219.858762 82.99484 
L 220.064336 82.895088 
L 220.148984 82.762085 
L 220.469437 82.662332 
L 220.560131 82.429577 
L 220.711289 82.329825 
L 220.783844 82.163571 
L 220.814076 82.163571 
L 220.910816 82.063819 
L 220.916862 81.964066 
L 221.043835 81.897565 
L 221.043835 81.864314 
L 221.110344 81.831063 
L 221.334056 81.731311 
L 221.370334 81.631559 
L 221.430797 81.631559 
L 221.563815 81.531807 
L 221.666602 81.332302 
L 221.769389 81.2658 
L 221.878223 81.066296 
L 222.017287 80.966544 
L 222.150306 80.667287 
L 222.234954 80.567535 
L 222.28937 80.434532 
L 222.45262 80.334779 
L 222.476805 80.268278 
L 222.543314 80.268278 
L 222.634009 80.168525 
L 222.670286 80.102024 
L 222.700518 80.102024 
L 222.863768 80.002272 
L 222.918184 79.802767 
L 222.972601 79.802767 
L 223.099573 79.736266 
L 223.184221 79.403758 
L 223.305147 79.304006 
L 223.426073 79.171003 
L 223.601415 79.071251 
L 223.698156 78.938247 
L 223.776758 78.838495 
L 223.782804 78.805244 
L 224.073026 78.705492 
L 224.145581 78.60574 
L 224.435803 78.505988 
L 224.435803 78.472737 
L 224.532544 78.472737 
L 224.611146 78.372985 
L 224.683701 78.273232 
L 224.707886 78.273232 
L 224.871136 78.17348 
L 224.967877 77.940725 
L 225.354839 77.541716 
L 225.765987 77.441963 
L 225.947376 77.342211 
L 226.231551 77.242459 
L 226.328292 77.142707 
L 226.334338 77.142707 
L 226.515727 77.042954 
L 226.67293 76.909951 
L 226.866412 76.810199 
L 226.95106 76.710447 
L 226.975245 76.710447 
L 227.120356 76.510942 
L 227.198958 76.41119 
L 227.301745 76.311438 
L 227.471041 76.244936 
L 227.579874 76.111933 
L 227.773355 76.012181 
L 227.864049 75.812676 
L 228.051484 75.712924 
L 228.154271 75.613172 
L 228.293336 75.51342 
L 228.432401 75.413667 
L 228.764947 75.313915 
L 228.764947 75.280664 
L 228.855641 75.280664 
L 229.012845 75.180912 
L 229.0854 75.047909 
L 229.121678 75.047909 
L 229.29702 74.981407 
L 229.339344 74.781903 
L 229.393761 74.781903 
L 229.641659 74.682151 
L 229.641659 74.6489 
L 229.683983 74.6489 
L 229.901649 74.549148 
L 229.956066 74.482646 
L 229.99839 74.482646 
L 230.270473 74.382894 
L 230.349075 74.116888 
L 230.367214 74.116888 
L 230.621158 74.017135 
L 230.729991 73.884132 
L 230.832778 73.78438 
L 230.881148 73.618126 
L 230.91138 73.618126 
L 231.135092 73.518374 
L 231.135092 73.485123 
L 231.213694 73.485123 
L 231.298342 73.385371 
L 231.352759 73.185867 
L 231.38299 73.185867 
L 231.461592 73.086114 
L 231.570425 73.019613 
L 231.866693 72.91986 
L 232.005758 72.720356 
L 232.380628 72.620604 
L 232.489461 72.421099 
L 232.797822 72.321347 
L 232.876424 72.221595 
L 232.894563 72.221595 
L 233.118275 72.121842 
L 233.202923 71.988839 
L 233.438729 71.889087 
L 233.565701 71.756084 
L 233.728951 71.656332 
L 233.783367 71.58983 
L 233.837784 71.58983 
L 234.248932 71.490078 
L 234.357765 71.357075 
L 234.514968 71.257323 
L 234.617755 71.024567 
L 234.992625 70.924815 
L 235.101458 70.858314 
L 235.210292 70.758561 
L 235.307032 70.725311 
L 235.83306 70.625558 
L 235.935846 70.392803 
L 236.014448 70.293051 
L 236.087004 70.093546 
L 236.117235 70.093546 
L 236.286531 69.993794 
L 236.298624 69.927292 
L 236.346994 69.927292 
L 236.655355 69.82754 
L 236.84279 69.528283 
L 236.969762 69.428531 
L 237.048364 69.328779 
L 237.296262 69.229026 
L 237.296262 69.195776 
L 237.338586 69.195776 
L 237.562298 69.096023 
L 237.652993 68.96302 
L 237.665085 68.96302 
L 237.925076 68.863268 
L 238.039955 68.796767 
L 238.082279 68.697014 
L 238.154835 68.564011 
L 238.191113 68.564011 
L 238.372501 68.464259 
L 238.43901 68.364507 
L 238.451103 68.364507 
L 238.620399 68.264755 
L 238.711094 68.198253 
L 238.723186 68.198253 
L 238.886436 68.098501 
L 238.97713 67.932247 
L 239.09201 67.832495 
L 239.200843 67.699492 
L 239.430602 67.63299 
L 239.521296 67.433486 
L 239.835703 67.333733 
L 239.920352 67.20073 
L 239.932444 67.20073 
L 240.047324 67.134229 
L 240.150111 67.001226 
L 240.26499 66.901473 
L 240.26499 66.868223 
L 240.373823 66.868223 
L 240.537073 66.801721 
L 240.645906 66.602217 
L 240.839388 66.502464 
L 240.881712 66.435963 
L 240.930082 66.435963 
L 241.268674 66.336211 
L 241.371461 66.236458 
L 241.474248 66.136706 
L 241.577035 66.036954 
L 241.879349 65.937202 
L 241.97609 65.8707 
L 242.290497 65.804198 
L 242.369099 65.538192 
L 242.387238 65.538192 
L 242.610951 65.43844 
L 242.719784 65.338688 
L 242.876987 65.238936 
L 242.973728 65.039431 
L 243.300228 64.939679 
L 243.445339 64.773425 
L 243.542079 64.673673 
L 243.542079 64.607171 
L 243.771838 64.507419 
L 243.771838 64.474168 
L 243.85044 64.474168 
L 244.01369 64.374416 
L 244.01369 64.341165 
L 244.080199 64.341165 
L 244.418791 64.241413 
L 244.521578 64.10841 
L 244.684828 64.008658 
L 244.787615 63.908905 
L 244.97505 63.809153 
L 245.029466 63.709401 
L 245.077837 63.709401 
L 245.386198 63.609649 
L 245.470846 63.476646 
L 245.488984 63.476646 
L 245.60991 63.376893 
L 245.700605 63.24389 
L 245.912225 63.144138 
L 245.912225 63.110887 
L 245.996873 63.110887 
L 246.232678 63.011135 
L 246.31128 62.944633 
L 246.335465 62.944633 
L 246.674057 62.844881 
L 246.710335 62.711878 
L 246.782891 62.711878 
L 247.121483 62.612126 
L 247.230316 62.512374 
L 247.411705 62.412621 
L 247.508445 62.279618 
L 247.714019 62.213117 
L 247.714019 62.179866 
L 247.816806 62.080114 
L 247.9075 61.980361 
L 247.967963 61.847358 
L 247.986102 61.847358 
L 248.294463 61.747606 
L 248.379111 61.581352 
L 248.39725 61.581352 
L 248.578639 61.4816 
L 248.675379 61.315346 
L 248.687472 61.315346 
L 248.747935 61.248845 
L 248.747935 61.215594 
L 248.850722 61.149093 
L 249.153036 61.04934 
L 249.153036 61.016089 
L 249.207453 61.016089 
L 249.437212 60.916337 
L 249.533952 60.816585 
L 249.697202 60.716833 
L 249.769758 60.650331 
L 250.096257 60.550579 
L 250.180905 60.484077 
L 250.205091 60.484077 
L 250.338109 60.384325 
L 250.338109 60.351074 
L 250.440896 60.351074 
L 250.833905 60.251322 
L 250.942738 60.184821 
L 251.063664 60.085068 
L 251.323654 59.819062 
L 252.151996 59.71931 
L 252.158042 59.652808 
L 252.200366 59.652808 
L 252.56919 59.553056 
L 252.671977 59.353552 
L 252.762671 59.253799 
L 252.853366 59.087546 
L 252.865458 59.087546 
L 253.216143 58.987793 
L 253.349161 58.82154 
L 253.832865 58.721787 
L 253.929605 58.622035 
L 254.080762 58.522283 
L 254.135179 58.356029 
L 254.147272 58.356029 
L 254.346799 58.256277 
L 254.419355 58.189775 
L 254.673299 58.090023 
L 254.745854 57.95702 
L 254.770039 57.95702 
L 255.217465 57.857268 
L 255.277928 57.790766 
L 255.296067 57.790766 
L 255.56815 57.691014 
L 255.622566 57.558011 
L 255.810001 57.458258 
L 255.810001 57.425008 
L 255.900696 57.425008 
L 256.215103 57.325255 
L 256.31789 57.225503 
L 256.547649 57.125751 
L 256.656482 56.992748 
L 256.95275 56.892996 
L 256.95275 56.859745 
L 257.013213 56.859745 
L 257.170417 56.759993 
L 257.242972 56.693491 
L 257.617842 56.593739 
L 257.744814 56.560488 
L 257.932249 56.460736 
L 258.022943 56.327733 
L 258.397813 56.22798 
L 258.488508 56.161479 
L 258.506647 56.161479 
L 258.633619 56.061727 
L 258.71222 55.928724 
L 258.839193 55.828971 
L 258.905702 55.76247 
L 259.298711 55.662718 
L 259.298711 55.629467 
L 259.347081 55.629467 
L 259.607071 55.529715 
L 259.691719 55.33021 
L 259.848923 55.263709 
L 259.933571 55.163956 
L 260.290302 55.064204 
L 260.350765 54.964452 
L 260.695404 54.864699 
L 260.79819 54.764947 
L 261.058181 54.665195 
L 261.088412 54.598693 
L 261.100505 54.598693 
L 261.807921 54.498941 
L 261.892569 54.399189 
L 261.904661 54.399189 
L 262.599985 54.299437 
L 262.660448 54.232935 
L 262.793466 54.133183 
L 262.829744 54.066681 
L 262.866022 54.066681 
L 263.307401 53.966929 
L 263.410188 53.933678 
L 263.573438 53.833926 
L 263.597623 53.767424 
L 263.676224 53.767424 
L 264.032956 53.667672 
L 264.111557 53.56792 
L 264.12365 53.56792 
L 264.262715 53.468168 
L 264.33527 53.401666 
L 264.540844 53.301914 
L 264.625492 53.202162 
L 264.933853 53.13566 
L 264.982223 53.035908 
L 265.024547 53.035908 
L 265.272445 52.936156 
L 265.272445 52.902905 
L 265.6715 52.803153 
L 265.744056 52.670149 
L 266.088694 52.570397 
L 266.155203 52.437394 
L 266.457518 52.337642 
L 266.505888 52.27114 
L 266.566351 52.27114 
L 267.437017 52.171388 
L 267.437017 52.138137 
L 267.515618 52.138137 
L 267.7091 52.038385 
L 267.733285 51.971884 
L 267.811887 51.971884 
L 268.241173 51.872131 
L 268.337914 51.772379 
L 268.549534 51.672627 
L 268.597904 51.572875 
L 268.62209 51.572875 
L 268.936497 51.506373 
L 268.936497 51.439871 
L 269.021145 51.439871 
L 269.190441 51.340119 
L 269.250904 51.273618 
L 269.79507 51.173865 
L 269.813209 51.107364 
L 269.837394 51.107364 
L 270.061107 51.007612 
L 270.097384 50.907859 
L 270.163893 50.907859 
L 270.278773 50.808107 
L 270.369467 50.641853 
L 270.508532 50.542101 
L 270.508532 50.50885 
L 270.599226 50.50885 
L 270.714106 50.409098 
L 270.8048 50.276095 
L 271.403383 50.176343 
L 271.50617 50.109841 
L 271.754068 50.010089 
L 271.754068 49.976838 
L 271.808484 49.976838 
L 272.189401 49.877086 
L 272.606595 49.644331 
L 273.205177 49.544578 
L 273.241455 49.478077 
L 273.525631 49.378325 
L 273.525631 49.345074 
L 273.622371 49.345074 
L 273.743297 49.245322 
L 273.954917 49.079068 
L 274.033519 49.012566 
L 274.033519 48.946065 
L 274.136306 48.946065 
L 274.34188 48.846312 
L 274.402343 48.74656 
L 274.450713 48.74656 
L 274.583731 48.680059 
L 274.613963 48.580306 
L 274.686518 48.580306 
L 274.759074 48.547056 
L 275.285101 48.447303 
L 275.285101 48.414053 
L 275.333471 48.414053 
L 275.768804 48.3143 
L 275.768804 48.214548 
L 276.010656 48.148047 
L 276.10135 47.981793 
L 276.119489 47.981793 
L 276.536683 47.915291 
L 276.597146 47.782288 
L 277.395256 47.682536 
L 277.395256 47.649285 
L 277.498043 47.649285 
L 277.824543 47.549533 
L 277.824543 47.516282 
L 277.915237 47.516282 
L 278.3022 47.41653 
L 278.392894 47.283527 
L 278.924967 47.183775 
L 278.924967 47.150524 
L 279.033801 47.150524 
L 279.571921 47.050772 
L 279.571921 47.017521 
L 279.644476 47.017521 
L 280.194688 46.917769 
L 280.309568 46.851267 
L 280.642114 46.751515 
L 280.817456 46.651762 
L 280.865827 46.55201 
L 280.956521 46.419007 
L 281.325345 46.319255 
L 281.325345 46.286004 
L 281.409993 46.286004 
L 281.524872 46.219503 
L 281.639752 46.153001 
L 282.075085 46.053249 
L 282.177871 45.920246 
L 282.329029 45.820494 
L 282.413677 45.787243 
L 283.000167 45.687491 
L 283.042491 45.587738 
L 283.665259 45.487986 
L 283.689444 45.354983 
L 283.768046 45.354983 
L 284.009897 45.255231 
L 284.106638 45.188729 
L 284.439184 45.088977 
L 284.44523 45.055726 
L 284.747545 44.955974 
L 284.747545 44.922723 
L 284.826146 44.922723 
L 285.122415 44.822971 
L 285.207063 44.723219 
L 285.225202 44.723219 
L 285.382405 44.656717 
L 285.382405 44.590216 
L 285.841923 44.490463 
L 285.866108 44.423962 
L 285.950756 44.423962 
L 286.355858 44.32421 
L 286.43446 44.257708 
L 286.978626 44.157956 
L 287.087459 44.024953 
L 287.788828 43.9252 
L 287.897662 43.758947 
L 288.502291 43.659194 
L 288.611124 43.526191 
L 289.379003 43.426439 
L 289.48179 43.359938 
L 290.074326 43.260185 
L 290.110604 43.193684 
L 290.177113 43.193684 
L 290.533844 43.093931 
L 290.594307 43.02743 
L 291.471019 42.927678 
L 291.549621 42.861176 
L 291.6645 42.761424 
L 291.712871 42.694922 
L 291.773333 42.694922 
L 292.232852 42.59517 
L 292.232852 42.561919 
L 292.3175 42.561919 
L 292.571444 42.462167 
L 292.62586 42.395666 
L 293.00073 42.295913 
L 293.00073 42.262663 
L 293.109564 42.262663 
L 293.514665 42.16291 
L 293.611406 42.096409 
L 294.512303 41.996657 
L 294.572766 41.930155 
L 295.255996 41.830403 
L 295.255996 41.797152 
L 295.334598 41.797152 
L 295.606681 41.6974 
L 295.606681 41.664149 
L 295.697376 41.664149 
L 295.963412 41.564397 
L 296.042014 41.497895 
L 296.247588 41.398143 
L 296.247588 41.364892 
L 296.664782 41.26514 
L 296.719199 41.198638 
L 297.656374 41.098886 
L 297.747068 41.032385 
L 299.427936 40.932632 
L 299.427936 40.899382 
L 299.446075 40.899382 
L 299.923732 40.799629 
L 300.032565 40.733128 
L 300.576732 40.633375 
L 300.667426 40.566874 
L 300.685565 40.566874 
L 301.62274 40.467122 
L 301.659017 40.40062 
L 301.701341 40.40062 
L 303.339886 40.300868 
L 303.412441 40.234366 
L 303.442673 40.234366 
L 304.01707 40.134614 
L 304.125904 40.068113 
L 305.238421 39.96836 
L 305.238421 39.93511 
L 306.199781 39.835357 
L 306.260244 39.802107 
L 307.687168 39.702354 
L 307.808094 39.602602 
L 309.132232 39.50285 
L 309.132232 39.469599 
L 309.144324 39.469599 
L 309.863833 39.369847 
L 309.863833 39.336596 
L 309.972666 39.336596 
L 310.867517 39.236844 
L 310.867517 39.203593 
L 310.970304 39.203593 
L 311.961895 39.103841 
L 311.961895 39.07059 
L 312.064682 39.07059 
L 312.911163 38.970838 
L 312.911163 38.937587 
L 312.965579 38.937587 
L 313.660903 38.837835 
L 313.660903 38.804584 
L 313.733458 38.804584 
L 315.486882 38.704832 
L 315.486882 38.671581 
L 315.595716 38.671581 
L 317.361232 38.571829 
L 317.361232 38.538578 
L 317.409603 38.538578 
L 319.797887 38.438826 
L 319.797887 38.405575 
L 324.07866 38.305822 
L 324.07866 38.272572 
L 324.163308 38.272572 
L 331.140727 38.172819 
L 331.140727 38.139569 
L 335.699629 38.039816 
L 335.699629 38.006566 
L 335.802416 38.006566 
L 338.656265 37.906813 
L 338.656265 37.873563 
L 370.24813 37.77381 
L 370.24813 37.74056 
L 370.2965 37.74056 
L 523.97505 37.640807 
L 524.102022 37.607557 
L 571.184481 37.507804 
L 571.275176 37.474554 
L 599.245312 37.474554 
L 599.245312 37.474554 
" style="fill:none;stroke:#0000ff;stroke-linecap:round;stroke-width:1.5;"/>
   </g>
   <g id="line2d_14">
    <path clip-path="url(#pfa754bf859)" d="M 41.245313 348.103125 
L 599.245312 37.474554 
" style="fill:none;stroke:#ff0000;stroke-dasharray:5.55,2.4;stroke-dashoffset:0;stroke-width:1.5;"/>
   </g>
   <g id="patch_3">
    <path d="M 41.245313 348.103125 
L 41.245313 21.943125 
" style="fill:none;stroke:#ffffff;stroke-linecap:square;stroke-linejoin:miter;stroke-width:0.8;"/>
   </g>
   <g id="patch_4">
    <path d="M 599.245312 348.103125 
L 599.245312 21.943125 
" style="fill:none;stroke:#ffffff;stroke-linecap:square;stroke-linejoin:miter;stroke-width:0.8;"/>
   </g>
   <g id="patch_5">
    <path d="M 41.245313 348.103125 
L 599.245312 348.103125 
" style="fill:none;stroke:#ffffff;stroke-linecap:square;stroke-linejoin:miter;stroke-width:0.8;"/>
   </g>
   <g id="patch_6">
    <path d="M 41.245313 21.943125 
L 599.245312 21.943125 
" style="fill:none;stroke:#ffffff;stroke-linecap:square;stroke-linejoin:miter;stroke-width:0.8;"/>
   </g>
   <g id="text_15">
    <!-- Receiver Operating Characteristic -->
    <g style="fill:#262626;" transform="translate(230.215313 15.943125)scale(0.12 -0.12)">
     <defs>
      <path d="M 40.4375 19 
L 49.078125 17.875 
Q 47.65625 8.9375 41.8125 3.875 
Q 35.984375 -1.171875 27.484375 -1.171875 
Q 16.84375 -1.171875 10.375 5.78125 
Q 3.90625 12.75 3.90625 25.734375 
Q 3.90625 34.125 6.6875 40.421875 
Q 9.46875 46.734375 15.15625 49.875 
Q 20.84375 53.03125 27.546875 53.03125 
Q 35.984375 53.03125 41.359375 48.75 
Q 46.734375 44.484375 48.25 36.625 
L 39.703125 35.296875 
Q 38.484375 40.53125 35.375 43.15625 
Q 32.28125 45.796875 27.875 45.796875 
Q 21.234375 45.796875 17.078125 41.03125 
Q 12.9375 36.28125 12.9375 25.984375 
Q 12.9375 15.53125 16.9375 10.796875 
Q 20.953125 6.0625 27.390625 6.0625 
Q 32.5625 6.0625 36.03125 9.234375 
Q 39.5 12.40625 40.4375 19 
z
" id="ArialMT-99"/>
      <path d="M 4.828125 34.859375 
Q 4.828125 52.6875 14.390625 62.765625 
Q 23.96875 72.859375 39.109375 72.859375 
Q 49.03125 72.859375 56.984375 68.109375 
Q 64.9375 63.375 69.109375 54.90625 
Q 73.296875 46.4375 73.296875 35.6875 
Q 73.296875 24.8125 68.890625 16.21875 
Q 64.5 7.625 56.4375 3.203125 
Q 48.390625 -1.21875 39.0625 -1.21875 
Q 28.953125 -1.21875 20.984375 3.65625 
Q 13.03125 8.546875 8.921875 16.984375 
Q 4.828125 25.4375 4.828125 34.859375 
z
M 14.59375 34.71875 
Q 14.59375 21.78125 21.546875 14.328125 
Q 28.515625 6.890625 39.015625 6.890625 
Q 49.703125 6.890625 56.609375 14.40625 
Q 63.53125 21.921875 63.53125 35.75 
Q 63.53125 44.484375 60.578125 51 
Q 57.625 57.515625 51.921875 61.109375 
Q 46.234375 64.703125 39.15625 64.703125 
Q 29.109375 64.703125 21.84375 57.78125 
Q 14.59375 50.875 14.59375 34.71875 
z
" id="ArialMT-79"/>
      <path d="M 6.59375 -19.875 
L 6.59375 51.859375 
L 14.59375 51.859375 
L 14.59375 45.125 
Q 17.4375 49.078125 21 51.046875 
Q 24.5625 53.03125 29.640625 53.03125 
Q 36.28125 53.03125 41.359375 49.609375 
Q 46.4375 46.1875 49.015625 39.953125 
Q 51.609375 33.734375 51.609375 26.3125 
Q 51.609375 18.359375 48.75 11.984375 
Q 45.90625 5.609375 40.453125 2.21875 
Q 35.015625 -1.171875 29 -1.171875 
Q 24.609375 -1.171875 21.109375 0.6875 
Q 17.625 2.546875 15.375 5.375 
L 15.375 -19.875 
z
M 14.546875 25.640625 
Q 14.546875 15.625 18.59375 10.84375 
Q 22.65625 6.0625 28.421875 6.0625 
Q 34.28125 6.0625 38.453125 11.015625 
Q 42.625 15.96875 42.625 26.375 
Q 42.625 36.28125 38.546875 41.203125 
Q 34.46875 46.140625 28.8125 46.140625 
Q 23.1875 46.140625 18.859375 40.890625 
Q 14.546875 35.640625 14.546875 25.640625 
z
" id="ArialMT-112"/>
      <path d="M 6.59375 0 
L 6.59375 51.859375 
L 14.5 51.859375 
L 14.5 44.484375 
Q 20.21875 53.03125 31 53.03125 
Q 35.6875 53.03125 39.625 51.34375 
Q 43.5625 49.65625 45.515625 46.921875 
Q 47.46875 44.1875 48.25 40.4375 
Q 48.734375 37.984375 48.734375 31.890625 
L 48.734375 0 
L 39.9375 0 
L 39.9375 31.546875 
Q 39.9375 36.921875 38.90625 39.578125 
Q 37.890625 42.234375 35.28125 43.8125 
Q 32.671875 45.40625 29.15625 45.40625 
Q 23.53125 45.40625 19.453125 41.84375 
Q 15.375 38.28125 15.375 28.328125 
L 15.375 0 
z
" id="ArialMT-110"/>
      <path d="M 4.984375 -4.296875 
L 13.53125 -5.5625 
Q 14.0625 -9.515625 16.5 -11.328125 
Q 19.78125 -13.765625 25.4375 -13.765625 
Q 31.546875 -13.765625 34.859375 -11.328125 
Q 38.1875 -8.890625 39.359375 -4.5 
Q 40.046875 -1.8125 39.984375 6.78125 
Q 34.234375 0 25.640625 0 
Q 14.9375 0 9.078125 7.71875 
Q 3.21875 15.4375 3.21875 26.21875 
Q 3.21875 33.640625 5.90625 39.90625 
Q 8.59375 46.1875 13.6875 49.609375 
Q 18.796875 53.03125 25.6875 53.03125 
Q 34.859375 53.03125 40.828125 45.609375 
L 40.828125 51.859375 
L 48.921875 51.859375 
L 48.921875 7.03125 
Q 48.921875 -5.078125 46.453125 -10.125 
Q 44 -15.1875 38.640625 -18.109375 
Q 33.296875 -21.046875 25.484375 -21.046875 
Q 16.21875 -21.046875 10.5 -16.875 
Q 4.78125 -12.703125 4.984375 -4.296875 
z
M 12.25 26.859375 
Q 12.25 16.65625 16.296875 11.96875 
Q 20.359375 7.28125 26.46875 7.28125 
Q 32.515625 7.28125 36.609375 11.9375 
Q 40.71875 16.609375 40.71875 26.5625 
Q 40.71875 36.078125 36.5 40.90625 
Q 32.28125 45.75 26.3125 45.75 
Q 20.453125 45.75 16.34375 40.984375 
Q 12.25 36.234375 12.25 26.859375 
z
" id="ArialMT-103"/>
      <path d="M 58.796875 25.09375 
L 68.265625 22.703125 
Q 65.28125 11.03125 57.546875 4.90625 
Q 49.8125 -1.21875 38.625 -1.21875 
Q 27.046875 -1.21875 19.796875 3.484375 
Q 12.546875 8.203125 8.765625 17.140625 
Q 4.984375 26.078125 4.984375 36.328125 
Q 4.984375 47.515625 9.25 55.828125 
Q 13.53125 64.15625 21.40625 68.46875 
Q 29.296875 72.796875 38.765625 72.796875 
Q 49.515625 72.796875 56.828125 67.328125 
Q 64.15625 61.859375 67.046875 51.953125 
L 57.71875 49.75 
Q 55.21875 57.5625 50.484375 61.125 
Q 45.75 64.703125 38.578125 64.703125 
Q 30.328125 64.703125 24.78125 60.734375 
Q 19.234375 56.78125 16.984375 50.109375 
Q 14.75 43.453125 14.75 36.375 
Q 14.75 27.25 17.40625 20.4375 
Q 20.0625 13.625 25.671875 10.25 
Q 31.296875 6.890625 37.84375 6.890625 
Q 45.796875 6.890625 51.3125 11.46875 
Q 56.84375 16.0625 58.796875 25.09375 
z
" id="ArialMT-67"/>
      <path d="M 6.59375 0 
L 6.59375 71.578125 
L 15.375 71.578125 
L 15.375 45.90625 
Q 21.53125 53.03125 30.90625 53.03125 
Q 36.671875 53.03125 40.921875 50.75 
Q 45.171875 48.484375 47 44.484375 
Q 48.828125 40.484375 48.828125 32.859375 
L 48.828125 0 
L 40.046875 0 
L 40.046875 32.859375 
Q 40.046875 39.453125 37.1875 42.453125 
Q 34.328125 45.453125 29.109375 45.453125 
Q 25.203125 45.453125 21.75 43.421875 
Q 18.3125 41.40625 16.84375 37.9375 
Q 15.375 34.46875 15.375 28.375 
L 15.375 0 
z
" id="ArialMT-104"/>
     </defs>
     <use xlink:href="#ArialMT-82"/>
     <use x="72.216797" xlink:href="#ArialMT-101"/>
     <use x="127.832031" xlink:href="#ArialMT-99"/>
     <use x="177.832031" xlink:href="#ArialMT-101"/>
     <use x="233.447266" xlink:href="#ArialMT-105"/>
     <use x="255.664062" xlink:href="#ArialMT-118"/>
     <use x="305.664062" xlink:href="#ArialMT-101"/>
     <use x="361.279297" xlink:href="#ArialMT-114"/>
     <use x="394.580078" xlink:href="#ArialMT-32"/>
     <use x="422.363281" xlink:href="#ArialMT-79"/>
     <use x="500.146484" xlink:href="#ArialMT-112"/>
     <use x="555.761719" xlink:href="#ArialMT-101"/>
     <use x="611.376953" xlink:href="#ArialMT-114"/>
     <use x="644.677734" xlink:href="#ArialMT-97"/>
     <use x="700.292969" xlink:href="#ArialMT-116"/>
     <use x="728.076172" xlink:href="#ArialMT-105"/>
     <use x="750.292969" xlink:href="#ArialMT-110"/>
     <use x="805.908203" xlink:href="#ArialMT-103"/>
     <use x="861.523438" xlink:href="#ArialMT-32"/>
     <use x="889.306641" xlink:href="#ArialMT-67"/>
     <use x="961.523438" xlink:href="#ArialMT-104"/>
     <use x="1017.138672" xlink:href="#ArialMT-97"/>
     <use x="1072.753906" xlink:href="#ArialMT-114"/>
     <use x="1106.054688" xlink:href="#ArialMT-97"/>
     <use x="1161.669922" xlink:href="#ArialMT-99"/>
     <use x="1211.669922" xlink:href="#ArialMT-116"/>
     <use x="1239.453125" xlink:href="#ArialMT-101"/>
     <use x="1295.068359" xlink:href="#ArialMT-114"/>
     <use x="1328.369141" xlink:href="#ArialMT-105"/>
     <use x="1350.585938" xlink:href="#ArialMT-115"/>
     <use x="1400.585938" xlink:href="#ArialMT-116"/>
     <use x="1428.369141" xlink:href="#ArialMT-105"/>
     <use x="1450.585938" xlink:href="#ArialMT-99"/>
    </g>
   </g>
   <g id="legend_1">
    <g id="patch_7">
     <path d="M 508.273438 343.103125 
L 592.245312 343.103125 
Q 594.245312 343.103125 594.245312 341.103125 
L 594.245312 327.957813 
Q 594.245312 325.957813 592.245312 325.957813 
L 508.273438 325.957813 
Q 506.273438 325.957813 506.273438 327.957813 
L 506.273438 341.103125 
Q 506.273438 343.103125 508.273438 343.103125 
z
" style="fill:#eaeaf2;opacity:0.8;stroke:#cccccc;stroke-linejoin:miter;"/>
    </g>
    <g id="line2d_15">
     <path d="M 510.273438 333.615625 
L 530.273438 333.615625 
" style="fill:none;stroke:#0000ff;stroke-linecap:round;stroke-width:1.5;"/>
    </g>
    <g id="line2d_16"/>
    <g id="text_16">
     <!-- AUC = 0.82 -->
     <g style="fill:#262626;" transform="translate(538.273438 337.115625)scale(0.1 -0.1)">
      <defs>
       <path d="M -0.140625 0 
L 27.34375 71.578125 
L 37.546875 71.578125 
L 66.84375 0 
L 56.0625 0 
L 47.703125 21.6875 
L 17.78125 21.6875 
L 9.90625 0 
z
M 20.515625 29.390625 
L 44.78125 29.390625 
L 37.3125 49.21875 
Q 33.890625 58.25 32.234375 64.0625 
Q 30.859375 57.171875 28.375 50.390625 
z
" id="ArialMT-65"/>
       <path d="M 54.6875 71.578125 
L 64.15625 71.578125 
L 64.15625 30.21875 
Q 64.15625 19.4375 61.71875 13.078125 
Q 59.28125 6.734375 52.90625 2.75 
Q 46.53125 -1.21875 36.1875 -1.21875 
Q 26.125 -1.21875 19.71875 2.25 
Q 13.328125 5.71875 10.59375 12.28125 
Q 7.859375 18.84375 7.859375 30.21875 
L 7.859375 71.578125 
L 17.328125 71.578125 
L 17.328125 30.28125 
Q 17.328125 20.953125 19.0625 16.53125 
Q 20.796875 12.109375 25.015625 9.71875 
Q 29.25 7.328125 35.359375 7.328125 
Q 45.796875 7.328125 50.234375 12.0625 
Q 54.6875 16.796875 54.6875 30.28125 
z
" id="ArialMT-85"/>
       <path d="M 52.828125 42.09375 
L 5.5625 42.09375 
L 5.5625 50.296875 
L 52.828125 50.296875 
z
M 52.828125 20.359375 
L 5.5625 20.359375 
L 5.5625 28.5625 
L 52.828125 28.5625 
z
" id="ArialMT-61"/>
      </defs>
      <use xlink:href="#ArialMT-65"/>
      <use x="66.699219" xlink:href="#ArialMT-85"/>
      <use x="138.916016" xlink:href="#ArialMT-67"/>
      <use x="211.132812" xlink:href="#ArialMT-32"/>
      <use x="238.916016" xlink:href="#ArialMT-61"/>
      <use x="297.314453" xlink:href="#ArialMT-32"/>
      <use x="325.097656" xlink:href="#ArialMT-48"/>
      <use x="380.712891" xlink:href="#ArialMT-46"/>
      <use x="408.496094" xlink:href="#ArialMT-56"/>
      <use x="464.111328" xlink:href="#ArialMT-50"/>
     </g>
    </g>
   </g>
  </g>
 </g>
 <defs>
  <clipPath id="pfa754bf859">
   <rect height="326.16" width="558" x="41.245313" y="21.943125"/>
  </clipPath>
 </defs>
</svg>
